<?xml version="1.0" encoding="UTF-8" standalone="no"?>
<svg
   enable-background="new 0 0 65 65"
   id="Layer_1"
   version="1.1"
   viewBox="0 0 60.79348 46.785786"
   xml:space="preserve"
   sodipodi:docname="china.svg"
   inkscape:version="1.2.1 (9c6d41e410, 2022-07-14, custom)"
   xmlns:inkscape="http://www.inkscape.org/namespaces/inkscape"
   xmlns:sodipodi="http://sodipodi.sourceforge.net/DTD/sodipodi-0.dtd"
   xmlns="http://www.w3.org/2000/svg"
   xmlns:svg="http://www.w3.org/2000/svg"><defs
     id="defs161" /><sodipodi:namedview
     id="namedview159"
     pagecolor="#ffffff"
     bordercolor="#000000"
     borderopacity="0.25"
     inkscape:showpageshadow="2"
     inkscape:pageopacity="0.0"
     inkscape:pagecheckerboard="0"
     inkscape:deskcolor="#d1d1d1"
     showgrid="false"
     inkscape:zoom="13.173943"
     inkscape:cx="56.551025"
     inkscape:cy="26.60555"
     inkscape:window-width="2560"
     inkscape:window-height="1440"
     inkscape:window-x="0"
     inkscape:window-y="0"
     inkscape:window-maximized="1"
     inkscape:current-layer="Layer_1" /><g
     id="g482"
     style="fill:#677821"
     transform="translate(-2.103,-9.1082144)"><path
       d="m 55.541,27.661 -0.016,0.121 0.332,0.133 -0.146,-0.188 c -0.042,-0.051 -0.1,-0.075 -0.17,-0.066 z"
       id="path142"
       style="fill:#677821" /><path
       d="m 59.715,39.877 c -0.07,0 -0.132,0.024 -0.178,0.069 l -0.035,0.035 0.115,0.19 0.041,-0.006 c 0.043,-0.005 0.084,0.004 0.126,0.011 0.041,0.007 0.079,0.014 0.118,0.014 0.05,0 0.092,-0.009 0.132,-0.03 l 0.062,-0.032 -0.035,-0.059 c -0.067,-0.106 -0.219,-0.192 -0.346,-0.192 z"
       id="path144"
       style="fill:#677821" /><path
       d="m 59.742,39.837 c 0.013,0 0.025,-0.001 0.04,-0.004 l 0.06,-0.008 -0.005,-0.062 c -0.013,-0.116 -0.083,-0.157 -0.143,-0.157 -0.039,0 -0.078,0.015 -0.116,0.046 l -0.05,0.036 0.035,0.051 c 0.044,0.064 0.106,0.098 0.179,0.098 z"
       id="path146"
       style="fill:#677821" /><path
       d="M 52.352,50.486 C 52.34,50.474 52.323,50.463 52.297,50.463 h -0.022 l -0.058,0.036 0.112,0.378 0.059,-0.223 c 0.016,-0.06 0.012,-0.118 -0.014,-0.175 z"
       id="path148"
       style="fill:#677821" /><path
       d="M 53.043,50.36 52.95,50.312 v 0.104 c 0,0.086 0.051,0.15 0.138,0.173 l 0.108,0.031 -0.03,-0.108 c -0.02,-0.07 -0.061,-0.12 -0.123,-0.152 z"
       id="path150"
       style="fill:#677821" /><path
       d="m 52.898,50.23 -0.084,0.055 c -0.017,0.01 -0.037,0.019 -0.058,0.027 -0.076,0.036 -0.189,0.088 -0.185,0.218 l 0.003,0.058 0.072,0.003 c 0.083,0 0.162,-0.033 0.212,-0.09 0.043,-0.048 0.06,-0.106 0.052,-0.171 z"
       id="path152"
       style="fill:#677821" /><path
       d="m 49.441,53.254 c -0.084,0 -0.12,0.042 -0.136,0.066 -0.015,0.025 -0.022,0.056 -0.021,0.091 -0.068,-0.028 -0.137,-0.037 -0.173,-0.021 -0.038,-0.025 -0.082,-0.038 -0.133,-0.038 -0.114,0 -0.229,0.069 -0.305,0.141 -0.063,-0.065 -0.158,-0.102 -0.277,-0.102 -0.118,0 -0.239,0.037 -0.314,0.099 l -0.044,0.035 0.027,0.043 c -0.003,-0.002 -0.006,-0.004 -0.008,-0.005 -0.058,-0.035 -0.131,-0.074 -0.208,-0.05 -0.083,0.024 -0.135,0.092 -0.132,0.176 0.002,0.054 0.023,0.105 0.059,0.147 -0.158,0.077 -0.282,0.206 -0.403,0.332 -0.053,0.056 -0.104,0.108 -0.156,0.156 l -0.013,0.015 c -0.054,0.087 -0.013,0.279 0.043,0.505 0.01,0.041 0.019,0.075 0.022,0.097 0.008,0.04 0.013,0.084 0.018,0.132 0.017,0.155 0.038,0.331 0.146,0.445 0.103,0.106 0.238,0.138 0.369,0.168 0.087,0.021 0.171,0.04 0.238,0.081 0.176,0.105 0.432,0.127 0.617,0.127 l 0.146,-0.003 -0.029,-0.082 c -0.02,-0.058 -0.003,-0.096 0.014,-0.121 0.041,-0.059 0.138,-0.078 0.168,-0.026 l 0.113,-0.058 c -0.001,-0.027 0.039,-0.108 0.317,-0.352 0.018,-0.016 0.032,-0.028 0.041,-0.036 0.09,-0.085 0.167,-0.396 0.139,-0.555 -0.006,-0.028 -0.015,-0.052 -0.024,-0.07 0.112,-0.113 0.207,-0.342 0.225,-0.511 0.057,0.016 0.106,-0.002 0.137,-0.044 0.089,-0.134 -0.065,-0.534 -0.067,-0.537 -0.056,-0.133 -0.264,-0.245 -0.396,-0.245 z"
       id="path154"
       style="fill:#677821" /><path
       d="m 62.782,19.581 c 0.041,-0.033 0.098,-0.079 0.112,-0.177 0.014,-0.096 -0.034,-0.173 -0.076,-0.241 -0.027,-0.047 -0.057,-0.092 -0.058,-0.133 -0.003,-0.046 0.013,-0.081 0.03,-0.116 0.036,-0.075 0.058,-0.146 -0.023,-0.231 0.023,-0.024 0.041,-0.052 0.05,-0.082 0.031,-0.104 -0.03,-0.213 -0.091,-0.317 -0.042,-0.074 -0.086,-0.149 -0.082,-0.2 0.01,-0.114 -0.043,-0.212 -0.091,-0.298 -0.03,-0.058 -0.061,-0.111 -0.071,-0.166 -0.006,-0.029 -0.006,-0.06 -0.008,-0.091 -10e-4,-0.055 -0.004,-0.119 -0.032,-0.179 -0.017,-0.038 -0.046,-0.07 -0.074,-0.102 -0.074,-0.083 -0.074,-0.098 -0.04,-0.132 0.012,-0.012 0.046,-0.025 0.074,-0.036 0.052,-0.021 0.111,-0.043 0.14,-0.094 0.149,-0.267 -0.104,-0.504 -0.273,-0.661 -0.029,-0.028 -0.057,-0.055 -0.081,-0.078 -0.092,-0.094 -0.128,-0.198 -0.116,-0.33 l 0.007,-0.062 -0.062,-0.008 c -0.075,-0.01 -0.334,-0.101 -0.4,-0.146 -0.032,-0.021 -0.067,-0.03 -0.108,-0.03 -0.102,0 -0.214,0.065 -0.312,0.124 -0.055,0.033 -0.111,0.065 -0.146,0.075 -0.158,0.042 -0.177,0.1 -0.199,0.209 l -0.002,0.007 c -0.037,-0.006 -0.092,-0.025 -0.116,-0.035 -0.021,-0.008 -0.029,-0.011 -0.041,-0.012 -0.24,-0.026 -0.539,0.151 -0.566,0.424 -0.013,0.12 -0.342,0.134 -0.52,0.142 -0.061,0.002 -0.113,0.005 -0.151,0.01 -0.075,0.008 -0.143,-0.013 -0.218,-0.035 -0.069,-0.021 -0.142,-0.043 -0.221,-0.043 -0.07,0 -0.132,0.016 -0.192,0.032 -0.038,0.011 -0.076,0.021 -0.124,0.026 -0.16,0 -0.604,-0.341 -0.67,-0.486 -0.027,-0.063 -0.042,-0.119 -0.057,-0.172 -0.036,-0.132 -0.066,-0.246 -0.269,-0.363 -0.023,-0.012 -0.048,-0.026 -0.073,-0.039 -0.072,-0.039 -0.156,-0.083 -0.198,-0.133 -0.014,-0.017 -0.023,-0.081 -0.028,-0.123 -0.012,-0.091 -0.025,-0.186 -0.101,-0.216 -0.125,-0.05 -0.245,-0.05 -0.359,-0.05 -0.132,0 -0.256,-10e-4 -0.387,-0.077 -0.052,-0.029 -0.114,-0.083 -0.181,-0.141 -0.135,-0.116 -0.288,-0.248 -0.433,-0.248 h -10e-4 c -0.021,-0.004 -0.096,-0.049 -0.146,-0.079 -0.191,-0.113 -0.287,-0.145 -0.328,-0.076 -0.003,0.006 -0.005,0.011 -0.007,0.017 -0.069,-0.023 -0.135,-0.043 -0.2,-0.063 -0.148,-0.045 -0.29,-0.087 -0.434,-0.167 -0.065,-0.036 -0.142,-0.054 -0.234,-0.054 -0.096,0 -0.197,0.02 -0.285,0.038 l -0.057,0.011 c -0.349,0.065 -1.004,-0.247 -1.133,-0.624 -0.061,-0.176 -0.156,-0.222 -0.25,-0.266 -0.053,-0.026 -0.107,-0.052 -0.166,-0.105 -0.069,-0.062 -0.116,-0.139 -0.166,-0.223 -0.058,-0.094 -0.117,-0.192 -0.213,-0.27 -0.11,-0.091 -0.232,-0.167 -0.352,-0.238 -0.093,-0.058 -0.19,-0.117 -0.28,-0.184 -0.063,-0.049 -0.114,-0.123 -0.168,-0.2 -0.085,-0.122 -0.171,-0.248 -0.328,-0.295 -0.082,-0.024 -0.165,-0.119 -0.244,-0.21 -0.064,-0.074 -0.126,-0.144 -0.192,-0.188 -0.027,-0.018 -0.056,-0.035 -0.088,-0.053 -0.14,-0.085 -0.286,-0.173 -0.291,-0.316 -0.005,-0.131 -0.124,-0.16 -0.194,-0.177 -0.022,-0.006 -0.066,-0.017 -0.073,-0.026 -0.057,-0.112 -0.175,-0.185 -0.289,-0.255 -0.051,-0.031 -0.1,-0.06 -0.137,-0.091 -0.073,-0.06 -0.15,-0.091 -0.224,-0.121 C 49.416,10.311 49.367,10.291 49.322,10.264 49.305,10.255 49.301,10.242 49.29,10.208 49.275,10.167 49.256,10.11 49.188,10.073 49.153,10.054 49.094,10.029 49.028,10 48.914,9.952 48.703,9.861 48.674,9.811 48.61,9.696 48.142,9.518 47.905,9.518 47.784,9.518 47.726,9.559 47.698,9.601 47.586,9.554 47.468,9.527 47.353,9.5 47.222,9.47 47.1,9.441 46.982,9.386 L 46.956,9.374 C 46.776,9.289 46.59,9.2 46.395,9.15 46.148,9.087 45.86,9.106 45.596,9.137 c -0.164,0.02 -0.332,0.04 -0.51,0.03 -0.329,-0.019 -0.636,0.059 -0.932,0.134 -0.126,0.032 -0.257,0.064 -0.389,0.09 -0.229,0.044 -0.314,0.222 -0.389,0.378 -0.063,0.13 -0.117,0.242 -0.239,0.283 l -0.092,0.031 0.105,0.119 c 0.08,0.092 0.17,0.196 0.311,0.196 0.039,0 0.082,-0.008 0.125,-0.025 0.034,-0.014 0.07,-0.021 0.108,-0.021 0.159,0 0.31,0.123 0.378,0.244 0.036,0.066 0.1,0.133 0.167,0.204 0.102,0.108 0.215,0.23 0.208,0.327 -0.005,0.041 -0.03,0.08 -0.081,0.119 -0.253,0.187 -0.236,0.394 -0.217,0.612 0.005,0.059 0.011,0.121 0.011,0.188 0,0.063 0.014,0.116 0.026,0.163 0.019,0.065 0.031,0.114 0.005,0.183 -0.034,0.089 -0.027,0.176 0.018,0.25 0.028,0.061 0.017,0.097 0,0.153 -0.014,0.046 -0.029,0.098 -0.022,0.167 0.001,0.014 0.001,0.031 0.003,0.048 0.002,0.09 0.007,0.242 0.139,0.271 0.156,0.035 0.212,0.067 0.228,0.194 0.017,0.123 -0.046,0.151 -0.268,0.184 -0.117,0.017 -0.239,0.035 -0.32,0.106 -0.074,0.066 -0.131,0.144 -0.184,0.21 -0.102,0.134 -0.169,0.217 -0.285,0.217 -0.049,0 -0.104,-0.014 -0.171,-0.043 -0.175,-0.078 -0.363,-0.117 -0.544,-0.156 -0.193,-0.041 -0.393,-0.083 -0.577,-0.171 l -0.1,-0.048 0.027,0.354 c 0.033,0.403 0.067,0.819 0.06,1.228 -0.004,0.18 0.002,0.31 0.101,0.465 0.037,0.061 0.037,0.061 -10e-4,0.102 -0.021,0.023 -0.048,0.05 -0.072,0.091 -0.027,0.049 -0.035,0.104 -0.021,0.16 0.052,0.189 0.358,0.357 0.506,0.439 l 0.032,0.017 c 0.056,0.032 0.104,0.047 0.149,0.047 0.085,0 0.135,-0.057 0.175,-0.103 0.029,-0.032 0.055,-0.061 0.092,-0.078 0.048,-0.024 0.19,-0.019 0.316,-0.01 0.056,0.004 0.107,0.008 0.15,0.008 l 0.046,-0.001 c 0.122,0 0.238,0.049 0.353,0.098 0.105,0.044 0.205,0.086 0.304,0.086 0.128,0 0.229,-0.07 0.311,-0.216 0.07,-0.126 0.186,-0.188 0.35,-0.188 0.167,0 0.344,0.064 0.463,0.118 0.653,0.294 1.28,0.655 1.813,1.044 0.216,0.158 0.457,0.423 0.43,0.507 -0.008,0.021 -0.071,0.045 -0.207,0.035 -0.169,-0.013 -0.342,-0.044 -0.488,-0.072 -0.032,-0.007 -0.087,-0.028 -0.139,-0.05 -0.078,-0.032 -0.153,-0.062 -0.21,-0.062 h -0.032 l -0.019,0.026 c -0.02,0.028 -0.042,0.057 -0.061,0.085 -0.052,0.002 -0.1,-0.003 -0.15,-0.01 -0.021,-0.003 -0.042,-0.005 -0.061,-0.009 -0.083,-0.012 -0.178,-0.021 -0.258,0 -0.059,0.016 -0.134,0.063 -0.213,0.112 -0.072,0.043 -0.18,0.108 -0.214,0.109 -0.011,-0.003 -0.023,-0.007 -0.036,-0.013 -0.103,-0.038 -0.265,-0.081 -0.329,-0.008 -0.028,0.031 -0.038,0.076 -0.033,0.131 0.012,0.08 -0.003,0.098 -0.005,0.1 0,0.001 -0.007,0.006 -0.038,0.006 -0.02,0 -0.043,-0.002 -0.064,-0.004 -0.032,-0.003 -0.064,-0.006 -0.111,-0.006 -0.234,0.005 -0.386,0.054 -0.515,0.291 -0.078,0.144 -0.028,0.278 0.012,0.388 0.031,0.084 0.05,0.139 0.025,0.176 -0.186,0.281 -0.495,0.438 -0.815,0.408 -0.029,-0.002 -0.066,-0.01 -0.109,-0.019 -0.084,-0.016 -0.188,-0.036 -0.28,-0.036 -0.106,0 -0.181,0.026 -0.225,0.082 -0.075,0.093 -0.119,0.207 -0.16,0.315 -0.019,0.048 -0.036,0.097 -0.058,0.142 -0.042,0.09 -0.131,0.158 -0.226,0.229 -0.056,0.042 -0.114,0.087 -0.164,0.137 -0.004,0.004 -0.021,0.018 -0.084,0.018 -0.077,0 -0.177,-0.021 -0.249,-0.038 -0.029,-0.006 -0.055,-0.012 -0.074,-0.015 -0.167,-0.027 -0.346,-0.101 -0.537,-0.178 -0.254,-0.104 -0.518,-0.211 -0.77,-0.211 -0.055,0 -0.109,0.005 -0.161,0.016 -0.119,0.025 -0.209,0.1 -0.261,0.219 -0.113,0.26 -0.023,0.656 0.082,0.83 0.064,0.107 0.226,0.21 0.413,0.329 0.224,0.143 0.499,0.32 0.498,0.465 -0.003,0 -0.007,0 -0.01,0 H 41.34 c -0.036,0 -0.111,0 -0.144,0.066 -0.035,0.08 -0.092,0.141 -0.178,0.188 l -0.073,0.04 c -0.146,0.079 -0.296,0.159 -0.387,0.32 -0.047,0.085 -0.075,0.179 -0.103,0.27 -0.036,0.118 -0.069,0.23 -0.141,0.314 -0.075,0.09 -0.233,0.142 -0.387,0.192 -0.11,0.036 -0.214,0.07 -0.296,0.119 -0.146,0.088 -0.326,0.129 -0.564,0.129 -0.128,0 -0.262,-0.011 -0.391,-0.022 -0.128,-0.011 -0.258,-0.021 -0.382,-0.021 h -0.037 c -0.203,0.003 -0.421,0.041 -0.634,0.077 -0.112,0.02 -0.223,0.039 -0.328,0.053 -0.226,0.027 -0.554,0.081 -0.813,0.213 -0.012,0.006 -1.003,0.529 -1.266,0.739 -0.084,-0.05 -0.169,-0.037 -0.253,-0.032 -0.029,0.003 -0.06,0.005 -0.089,0.005 -0.078,0 -0.125,-0.017 -0.169,-0.066 -0.103,-0.115 -0.162,-0.185 -0.293,-0.185 -0.046,0 -0.102,0.009 -0.18,0.027 -0.082,0.021 -0.163,0.029 -0.25,0.029 -0.253,0 -0.492,-0.082 -0.744,-0.169 -0.157,-0.055 -0.318,-0.109 -0.484,-0.145 -0.11,-0.023 -0.23,-0.039 -0.346,-0.054 -0.239,-0.031 -0.487,-0.064 -0.687,-0.165 -0.088,-0.045 -0.164,-0.107 -0.244,-0.175 -0.102,-0.085 -0.208,-0.173 -0.343,-0.223 -0.161,-0.061 -0.338,-0.064 -0.509,-0.068 -0.099,-0.003 -0.192,-0.005 -0.281,-0.018 -0.098,-0.013 -0.194,-0.028 -0.292,-0.044 -0.189,-0.031 -0.386,-0.063 -0.582,-0.076 -0.16,-0.011 -0.307,0.023 -0.448,0.058 -0.116,0.027 -0.224,0.054 -0.339,0.056 l -0.062,10e-4 c -0.162,0 -0.329,-0.015 -0.491,-0.029 -0.098,-0.009 -0.194,-0.018 -0.29,-0.023 -0.216,-0.013 -0.447,-0.063 -0.671,-0.112 -0.322,-0.071 -0.657,-0.145 -0.973,-0.113 -0.085,0.009 -0.169,0.024 -0.25,0.04 -0.158,0.03 -0.305,0.059 -0.461,0.035 -0.096,-0.015 -0.15,-0.079 -0.218,-0.161 -0.039,-0.045 -0.078,-0.093 -0.13,-0.136 -0.081,-0.067 -0.169,-0.126 -0.255,-0.181 -0.13,-0.085 -0.253,-0.165 -0.351,-0.276 -0.125,-0.144 -0.256,-0.319 -0.399,-0.537 -0.143,-0.216 -0.27,-0.29 -0.445,-0.389 l -0.086,-0.05 C 23.555,21.334 23.554,21.306 23.552,21.257 23.55,21.194 23.546,21.087 23.37,21.062 23.31,21.055 23.251,21.05 23.193,21.046 23.074,21.037 22.962,21.029 22.853,20.987 22.732,20.942 22.614,20.879 22.499,20.82 22.391,20.764 22.28,20.705 22.164,20.658 c -0.169,-0.067 -0.327,-0.15 -0.48,-0.229 -0.325,-0.17 -0.632,-0.33 -1.03,-0.359 -0.196,-0.015 -0.387,-0.006 -0.582,0.003 l -0.137,0.006 c -0.138,0.006 -0.284,-0.017 -0.425,-0.039 -0.109,-0.017 -0.222,-0.036 -0.333,-0.041 -0.105,-0.005 -0.212,-0.038 -0.325,-0.072 -0.128,-0.04 -0.262,-0.08 -0.397,-0.08 -0.018,0 -0.034,10e-4 -0.066,0.003 -0.14,0 -0.284,-0.162 -0.39,-0.28 L 17.95,19.516 c -0.143,-0.155 -0.099,-0.306 -0.011,-0.536 0.076,-0.198 -0.01,-0.299 -0.085,-0.39 -0.039,-0.046 -0.077,-0.091 -0.099,-0.152 -0.035,-0.095 -0.047,-0.181 -0.059,-0.263 -0.025,-0.17 -0.048,-0.333 -0.256,-0.507 -0.084,-0.071 -0.176,-0.131 -0.265,-0.19 -0.1,-0.065 -0.194,-0.129 -0.28,-0.205 -0.087,-0.077 -0.148,-0.173 -0.213,-0.275 -0.071,-0.111 -0.145,-0.225 -0.254,-0.317 -0.067,-0.056 -0.136,-0.082 -0.202,-0.107 -0.049,-0.019 -0.095,-0.037 -0.138,-0.065 -0.024,-0.016 -0.041,-0.039 -0.059,-0.065 -0.03,-0.042 -0.067,-0.095 -0.146,-0.121 l -0.065,-0.02 -0.016,0.066 c -0.005,0.018 -0.008,0.018 -0.021,0.018 -0.055,0 -0.16,-0.055 -0.253,-0.103 -0.144,-0.075 -0.296,-0.149 -0.398,-0.118 -0.029,0.01 -0.065,0.014 -0.104,0.014 -0.275,0 -0.678,-0.22 -0.828,-0.402 -0.12,-0.147 -0.293,-0.191 -0.461,-0.233 -0.086,-0.022 -0.167,-0.043 -0.238,-0.076 -0.027,-0.013 -0.027,-0.013 -0.021,-0.053 0.011,-0.088 -0.004,-0.176 -0.19,-0.215 -0.086,-0.018 -0.173,-0.075 -0.187,-0.122 -0.001,-0.007 -0.006,-0.023 0.021,-0.049 0.034,-0.035 0.042,-0.084 0.021,-0.135 -0.048,-0.115 -0.248,-0.238 -0.353,-0.205 -0.198,0.062 -0.281,0.063 -0.522,0.039 -0.107,-0.011 -0.286,-0.013 -0.366,0.099 -0.027,0.037 -0.051,0.103 -0.017,0.203 0.109,0.32 0.131,0.438 -0.183,0.579 -0.042,0.02 -0.11,0.021 -0.184,0.017 -0.026,-0.001 -0.053,-0.002 -0.079,-0.002 -0.059,0 -0.135,0.006 -0.203,0.054 -0.179,0.125 -0.122,0.549 -0.09,0.658 0.026,0.09 0.111,0.213 0.209,0.354 0.165,0.237 0.391,0.561 0.262,0.676 -0.063,0.056 -0.143,0.088 -0.226,0.123 -0.089,0.036 -0.181,0.073 -0.262,0.141 -0.072,0.063 -0.116,0.028 -0.187,-0.029 -0.059,-0.048 -0.133,-0.107 -0.236,-0.118 -0.125,-0.013 -0.247,10e-4 -0.364,0.014 -0.154,0.017 -0.304,0.028 -0.427,-0.001 C 9.738,17.455 9.596,17.388 9.432,17.307 L 9.368,17.276 C 9.292,17.24 9.224,17.222 9.166,17.222 c -0.083,0 -0.13,0.037 -0.155,0.068 -0.049,0.061 -0.062,0.152 -0.036,0.274 0.023,0.113 0.002,0.238 -0.02,0.369 -0.015,0.092 -0.031,0.188 -0.031,0.28 0,0.101 0.01,0.206 0.02,0.306 0.012,0.126 0.026,0.258 0.017,0.38 -0.004,0.04 -0.013,0.088 -0.023,0.139 -0.03,0.156 -0.064,0.331 0.018,0.452 0.064,0.096 0.17,0.114 0.255,0.128 0.102,0.017 0.156,0.03 0.178,0.106 0.031,0.1 0.021,0.191 0.001,0.202 -0.005,0 -0.028,-0.002 -0.073,-0.034 C 9.213,19.82 9.088,19.833 8.98,19.862 8.907,19.882 8.84,19.896 8.783,19.873 8.72,19.848 8.673,19.818 8.627,19.79 8.514,19.72 8.395,19.666 8.189,19.74 c -0.148,0.054 -0.3,0.085 -0.446,0.116 -0.125,0.026 -0.253,0.052 -0.38,0.093 -0.037,0.011 -0.086,0.022 -0.14,0.034 -0.177,0.041 -0.397,0.091 -0.479,0.213 -0.042,0.062 -0.05,0.117 -0.027,0.167 0.051,0.105 0.223,0.119 0.406,0.135 0.079,0.007 0.169,0.015 0.203,0.03 0.062,0.028 0.065,0.113 0.065,0.25 0,0.087 0,0.178 0.027,0.254 0.092,0.258 0.255,0.478 0.414,0.689 l 0.037,0.049 c 0.036,0.048 0.08,0.097 0.125,0.145 0.103,0.111 0.209,0.227 0.217,0.362 0.006,0.097 0.067,0.155 0.117,0.203 0.042,0.039 0.065,0.063 0.069,0.095 -0.015,-0.004 -0.03,-0.005 -0.046,-0.005 -0.14,0 -0.242,0.15 -0.285,0.216 l -0.043,0.064 0.072,0.029 c 0.037,0.016 0.073,0.035 0.106,0.057 -0.103,0.031 -0.204,0.077 -0.246,0.169 -0.03,0.066 -0.023,0.144 0.021,0.229 0.092,0.177 0.16,0.339 0.238,0.526 l 0.027,0.063 c 0.015,0.033 0.035,0.081 0.04,0.085 C 8.279,24.01 8.263,24.02 8.19,24.022 8.009,24.027 7.927,24.093 7.795,24.202 7.66,24.312 7.486,24.379 7.3,24.45 7.064,24.542 6.821,24.635 6.657,24.826 6.595,24.898 6.571,24.988 6.547,25.075 6.525,25.154 6.504,25.23 6.457,25.274 6.407,25.321 6.324,25.324 6.235,25.325 6.183,25.326 6.13,25.328 6.08,25.338 5.865,25.386 5.651,25.39 5.374,25.35 5.075,25.307 5.012,25.489 4.99,25.624 4.986,25.649 4.982,25.677 4.978,25.707 4.938,25.986 4.885,26.234 4.68,26.216 4.604,26.21 4.516,26.233 4.433,26.253 4.315,26.283 4.196,26.306 4.143,26.259 4.122,26.241 4.095,26.179 4.073,26.128 4.023,26.013 3.966,25.883 3.856,25.883 L 3.838,25.884 C 3.73,25.9 3.649,25.981 3.578,26.054 3.56,26.073 3.541,26.09 3.524,26.107 3.479,26.148 3.341,26.114 3.232,26.079 3.192,26.067 3.157,26.057 3.128,26.051 L 3.066,26.038 3.053,26.1 c -0.015,0.063 -0.015,0.126 0,0.186 -0.094,0.03 -0.16,0.104 -0.219,0.17 -0.049,0.056 -0.097,0.108 -0.154,0.132 -0.038,0.016 -0.08,0.021 -0.124,0.026 -0.102,0.012 -0.228,0.026 -0.279,0.2 -0.047,0.161 -0.022,0.222 0.024,0.301 0.021,0.036 0.045,0.077 0.062,0.157 0.01,0.05 0.004,0.089 -0.018,0.115 -0.027,0.033 -0.081,0.052 -0.153,0.052 v 0 H 2.103 l 0.031,0.086 c 0.013,0.035 0.016,0.08 0.021,0.128 0.007,0.091 0.015,0.193 0.09,0.27 0.028,0.028 0.058,0.055 0.087,0.082 0.046,0.045 0.091,0.086 0.131,0.131 -0.023,0.015 -0.037,0.034 -0.045,0.052 -0.062,0.13 0.102,0.357 0.174,0.449 0.06,0.075 0.125,0.11 0.201,0.11 0.073,0 0.14,-0.033 0.206,-0.066 0.078,-0.038 0.159,-0.077 0.238,-0.059 l 0.045,0.009 c 0.168,0.036 0.48,0.101 0.514,0.268 0.01,0.048 0.009,0.097 0.007,0.149 -0.003,0.072 -0.004,0.149 0.023,0.227 0.026,0.071 0.078,0.11 0.12,0.14 0.035,0.025 0.057,0.04 0.068,0.067 0.009,0.021 0.024,0.05 0.041,0.084 0.028,0.055 0.086,0.168 0.088,0.199 0,0.033 -0.003,0.062 -0.006,0.085 -0.013,0.089 -0.012,0.155 0.114,0.233 0.085,0.052 0.148,0.156 0.136,0.222 -0.008,0.043 -0.05,0.071 -0.129,0.085 -0.017,0 -0.042,-0.004 -0.071,-0.006 -0.046,-0.004 -0.102,-0.008 -0.156,-0.008 -0.082,0 -0.195,0.008 -0.242,0.087 -0.029,0.048 -0.025,0.109 0.014,0.181 0.065,0.121 0.188,0.13 0.286,0.137 0.118,0.01 0.192,0.021 0.235,0.123 l 0.05,0.124 0.064,-0.117 c 0.031,-0.055 0.077,-0.082 0.139,-0.082 0.125,0 0.291,0.111 0.355,0.21 0.068,0.102 0.185,0.122 0.299,0.141 0.093,0.015 0.188,0.031 0.253,0.091 0.108,0.101 0.174,0.212 0.211,0.351 0.011,0.042 0.016,0.102 0.021,0.16 0.007,0.088 0.015,0.179 0.044,0.242 0.038,0.086 0.157,0.173 0.273,0.257 0.045,0.033 0.086,0.063 0.113,0.087 0.036,0.033 0.078,0.05 0.125,0.05 0.076,0 0.147,-0.044 0.211,-0.082 0.01,-0.006 0.019,-0.011 0.028,-0.018 0.14,0.532 1.281,0.548 1.417,0.548 0.028,0 0.054,-10e-4 0.077,-10e-4 0.313,0.188 0.417,0.422 0.511,0.63 0.077,0.174 0.151,0.338 0.327,0.444 0.089,0.054 0.175,0.115 0.258,0.176 0.161,0.116 0.328,0.237 0.522,0.3 0.046,0.014 0.069,0.026 0.08,0.035 -0.021,0.021 -0.073,0.048 -0.096,0.062 -0.054,0.029 -0.086,0.047 -0.093,0.088 -0.014,0.095 0.03,0.644 0.334,0.952 0.24,0.245 0.25,0.25 0.533,0.335 l 0.087,0.025 c 0.014,0.014 0.024,0.079 0.029,0.119 0.011,0.076 0.023,0.155 0.067,0.208 l 0.024,0.027 c 0.103,0.12 0.171,0.212 0.103,0.305 -0.034,0.047 -0.08,0.07 -0.132,0.098 -0.067,0.034 -0.143,0.073 -0.198,0.166 -0.042,0.07 -0.121,0.056 -0.181,-0.015 -0.021,-0.026 -0.042,-0.051 -0.061,-0.075 -0.086,-0.108 -0.16,-0.204 -0.286,-0.204 -0.078,0 -0.167,0.038 -0.277,0.122 l -0.056,0.041 0.046,0.052 c 0.05,0.059 0.071,0.13 0.094,0.207 0.029,0.093 0.061,0.201 0.154,0.284 0.021,0.018 0.042,0.036 0.065,0.055 0.085,0.069 0.172,0.141 0.188,0.235 0.023,0.14 0.054,0.245 0.137,0.376 0.034,0.052 0.036,0.111 0.037,0.179 10e-4,0.057 0.003,0.114 0.022,0.175 0.014,0.044 0.056,0.175 0.171,0.175 0.062,0 0.116,-0.04 0.169,-0.077 0.042,-0.029 0.09,-0.063 0.124,-0.063 0.009,0 0.023,0.002 0.042,0.021 0.056,0.055 0.104,0.121 0.156,0.191 0.112,0.151 0.227,0.31 0.428,0.37 0.063,0.019 0.136,0.019 0.205,0.015 0.078,-0.006 0.141,-0.011 0.225,0.065 0.092,0.086 0.155,0.109 0.241,0.143 l 0.042,0.018 c 0.038,0.015 0.04,0.023 0.032,0.086 -0.006,0.048 -0.014,0.113 0.032,0.169 0.048,0.059 0.151,0.081 0.234,0.099 0.02,0.004 0.037,0.007 0.05,0.011 0.258,0.069 0.526,0.167 0.739,0.401 0.169,0.186 0.358,0.228 0.457,0.113 0.052,-0.061 0.074,-0.153 0.066,-0.277 0.062,-0.005 0.103,-0.039 0.133,-0.065 0.04,-0.034 0.052,-0.041 0.087,-0.03 0.051,0.017 0.102,0.024 0.151,0.035 0.09,0.013 0.175,0.027 0.237,0.085 0.317,0.283 0.637,0.521 0.975,0.728 0.093,0.057 0.195,0.097 0.294,0.136 0.147,0.056 0.286,0.109 0.368,0.208 l 0.025,0.031 c 0.241,0.302 0.383,0.426 0.489,0.426 0.034,0 0.063,-0.012 0.086,-0.035 0.068,-0.066 0.137,-0.102 0.206,-0.102 0.162,0 0.309,0.187 0.372,0.372 0.066,0.196 0.339,0.328 0.558,0.435 0.07,0.033 0.133,0.064 0.182,0.092 0.075,0.046 0.191,0.023 0.283,-0.002 0.039,-0.012 0.078,-0.023 0.111,-0.023 0.017,0.017 0.006,0.073 -0.004,0.119 -0.01,0.053 -0.021,0.106 -0.007,0.156 0.042,0.149 0.325,0.205 0.494,0.205 0.103,0 0.184,-0.018 0.238,-0.051 0.055,0.093 0.135,0.167 0.212,0.237 0.073,0.067 0.142,0.131 0.187,0.205 0.011,0.019 0.046,0.077 0.104,0.077 0.083,0 0.109,-0.1 0.13,-0.217 0.106,0.116 0.28,0.203 0.389,0.183 0.088,-0.016 0.104,-0.095 0.113,-0.139 0.006,-0.031 0.01,-0.047 0.019,-0.05 0.047,-0.021 0.146,0.028 0.211,0.063 l 0.102,0.052 c 0.194,0.1 0.348,0.179 0.577,0.183 h 0.024 c 0.095,0 0.195,-0.01 0.302,-0.021 0.195,-0.02 0.402,-0.034 0.529,0.004 l 0.101,0.029 -0.021,-0.104 c -0.003,-0.018 -0.007,-0.036 -0.01,-0.055 0.072,-0.014 0.146,-0.039 0.217,-0.064 0.097,-0.032 0.196,-0.067 0.278,-0.067 0.069,0 0.147,0.02 0.203,0.166 0.033,0.087 0.026,0.187 0.019,0.292 -0.014,0.188 -0.029,0.401 0.214,0.521 l 0.085,0.042 0.007,-0.094 c 0.01,-0.129 0.107,-0.315 0.187,-0.465 0.024,-0.047 0.047,-0.091 0.065,-0.13 0.115,-0.238 0.274,-0.433 0.448,-0.549 0.172,-0.114 0.34,-0.135 0.557,-0.069 0.043,0.013 0.053,0.036 0.067,0.099 0.014,0.064 0.039,0.173 0.191,0.175 l 0.025,0.001 c 0.181,0.002 0.336,0.003 0.497,0.078 0.132,0.063 0.226,0.011 0.285,-0.037 0.043,-0.035 0.067,-0.053 0.121,-0.047 0.145,0.019 0.42,0.132 0.422,0.202 0.008,0.207 0.166,0.229 0.305,0.247 0.119,0.017 0.221,-0.018 0.318,-0.051 0.073,-0.023 0.143,-0.047 0.22,-0.05 0.317,-0.012 0.359,-0.188 0.404,-0.375 l 0.017,-0.069 c 0.02,-0.075 0.101,-0.131 0.188,-0.188 0.073,-0.05 0.148,-0.101 0.198,-0.172 0.047,-0.065 0.062,-0.136 0.074,-0.19 0.021,-0.092 0.03,-0.135 0.15,-0.156 0.033,-0.005 0.065,-0.011 0.096,-0.015 0.182,-0.027 0.339,-0.051 0.495,-0.232 0.042,-0.048 0.08,-0.102 0.119,-0.155 0.081,-0.111 0.157,-0.216 0.266,-0.28 0.031,-0.019 0.06,-0.039 0.088,-0.059 0.079,-0.054 0.142,-0.098 0.208,-0.079 0.066,0.018 0.165,0.084 0.245,0.137 0.039,0.025 0.075,0.049 0.107,0.068 l 0.038,-0.046 c 0.031,0.014 0.08,0.038 0.147,0.076 0.022,0.012 0.038,0.021 0.042,0.022 l 0.015,0.007 c 0.089,0.038 0.252,0.092 0.34,0.031 0.065,-0.044 0.08,-0.114 0.092,-0.17 0.011,-0.05 0.019,-0.083 0.044,-0.1 l 0.026,-0.02 c 0.083,-0.058 0.301,-0.213 0.406,-0.213 0.013,0 0.018,0.002 0.019,0.003 0.086,0.063 0.19,0.152 0.278,0.233 -0.081,0.059 -0.184,0.16 -0.174,0.261 0.004,0.047 0.034,0.109 0.151,0.137 0.09,0.021 0.179,-0.034 0.25,-0.083 0.005,-0.004 0.011,-0.008 0.016,-0.011 0.02,0.071 0.073,0.127 0.116,0.171 0.056,0.057 0.081,0.088 0.072,0.121 -0.012,0.049 -0.052,0.102 -0.09,0.152 -0.025,0.035 -0.05,0.07 -0.07,0.103 -0.03,0.053 -0.092,0.161 -0.061,0.248 0.013,0.037 0.04,0.064 0.08,0.08 0.099,0.039 0.185,-0.012 0.241,-0.056 0.035,-0.026 0.065,-0.05 0.102,-0.051 0.085,0 0.183,0.053 0.275,0.103 0.038,0.021 0.075,0.039 0.109,0.056 0.058,0.025 0.123,0.025 0.184,0.019 0.042,-0.005 0.077,-0.026 0.146,0.042 0.062,0.061 0.117,0.09 0.17,0.09 0.143,0 0.181,-0.182 0.193,-0.345 0.086,0.064 0.184,0.115 0.281,0.165 0.113,0.059 0.229,0.119 0.318,0.199 0.076,0.069 0.095,0.146 0.116,0.243 0.009,0.038 0.018,0.076 0.029,0.116 0.034,0.11 0.103,0.214 0.17,0.313 0.043,0.064 0.085,0.126 0.115,0.187 l 0.024,0.052 0.054,-0.021 c 0.066,-0.023 0.116,-0.065 0.138,-0.119 0.002,-0.008 0.005,-0.016 0.007,-0.023 0.139,0.063 0.21,0.106 0.242,0.261 0.042,0.184 0.088,0.38 0.157,0.571 0.056,0.155 0.149,0.457 0.149,0.738 0,0.026 0.006,0.067 0.012,0.115 0.023,0.162 0.024,0.252 -0.003,0.269 -0.004,0 -0.014,-0.002 -0.032,-0.009 l -0.137,-0.053 0.053,0.136 c 0.021,0.055 0.062,0.101 0.102,0.146 0.041,0.049 0.082,0.094 0.091,0.14 -0.008,-0.001 -0.016,-0.003 -0.024,-0.004 -0.057,-0.011 -0.105,-0.013 -0.136,0.011 -0.129,0.098 -0.141,0.195 -0.148,0.26 -0.001,0.014 -0.005,0.036 -0.008,0.04 0,0.001 -0.034,0.019 -0.155,0.01 l -0.052,-0.005 -0.015,0.052 c -0.004,0.015 -0.009,0.048 -0.015,0.092 -0.042,0.322 -0.092,0.371 -0.117,0.371 -0.006,0 -0.026,-0.002 -0.064,-0.037 l -0.115,-0.104 0.008,0.155 c 0.004,0.064 -0.006,0.128 -0.017,0.188 -0.017,0.101 -0.033,0.203 0.011,0.319 -0.061,0.021 -0.097,0.054 -0.118,0.082 -0.048,0.061 -0.064,0.145 -0.048,0.243 0.028,0.151 0.07,0.199 0.12,0.253 0.021,0.023 0.046,0.049 0.073,0.092 0.064,0.097 0.113,0.239 0.085,0.312 -0.011,0.025 -0.027,0.051 -0.044,0.076 -0.051,0.079 -0.134,0.212 0.011,0.326 0.012,0.009 0.032,0.02 0.062,0.02 0.081,0 0.216,-0.085 0.436,-0.239 0.04,-0.029 0.07,-0.052 0.085,-0.06 0.098,-0.056 0.233,-0.05 0.386,-0.03 0.133,0.016 0.276,0.025 0.386,-0.014 -0.011,0.018 -0.024,0.037 -0.04,0.059 -0.055,0.073 -0.128,0.175 -0.051,0.311 0.023,0.041 0.061,0.078 0.096,0.113 0.091,0.092 0.115,0.13 0.078,0.182 -0.04,0.058 0.008,0.127 0.081,0.217 l 0.013,0.016 c 0.032,0.051 0.055,0.106 0.075,0.159 0.056,0.144 0.118,0.305 0.375,0.305 0.191,0 0.296,0.015 0.363,0.139 -0.033,0.012 -0.062,0.03 -0.084,0.056 -0.084,0.096 -0.061,0.263 -0.04,0.41 0.01,0.067 0.019,0.138 0.012,0.174 -0.002,0.021 -0.016,0.054 -0.031,0.095 -0.053,0.142 -0.118,0.318 -0.046,0.421 0.025,0.037 0.078,0.081 0.194,0.064 0.323,-0.045 0.533,-0.026 0.704,0.059 0.047,0.022 0.051,0.07 0.051,0.171 0,0.106 -10e-4,0.278 0.204,0.316 -0.008,0.066 0.004,0.144 0.027,0.2 0.037,0.087 0.091,0.115 0.129,0.123 l 0.029,0.004 c 0.061,0 0.102,-0.04 0.131,-0.069 0.014,-0.015 0.032,-0.031 0.042,-0.031 0.001,0 0.008,0 0.021,0.008 0.049,0.031 0.104,0.049 0.162,0.049 0.19,0 0.382,-0.172 0.537,-0.31 0.016,-0.015 0.033,-0.029 0.048,-0.043 0.027,0.113 0.075,0.219 0.123,0.321 0.024,0.051 0.049,0.102 0.068,0.153 0.053,0.134 0.095,0.222 0.207,0.222 0.046,0 0.097,-0.017 0.173,-0.04 l 0.033,-0.008 c 0.033,0 0.075,0.028 0.115,0.054 0.052,0.033 0.104,0.068 0.165,0.068 0.038,0 0.074,-0.016 0.105,-0.045 0.088,-0.081 0.018,-0.205 -0.033,-0.296 -0.019,-0.032 -0.047,-0.08 -0.048,-0.098 0,-0.024 0.012,-0.054 0.024,-0.085 0.018,-0.045 0.039,-0.095 0.031,-0.153 L 38.954,51.293 C 38.928,51.245 38.9,51.199 38.87,51.154 c -0.037,-0.111 -0.106,-0.206 -0.172,-0.299 -0.022,-0.029 -0.044,-0.058 -0.063,-0.088 -0.046,-0.069 -0.131,-0.389 -0.061,-0.521 0.018,-0.034 0.044,-0.049 0.071,-0.054 0.003,0.002 0.009,0.014 0.011,0.021 0.017,0.033 0.06,0.108 0.146,0.084 0.05,-0.017 0.104,-0.026 0.161,-0.031 0.014,0 0.039,0.012 0.063,0.022 0.033,0.015 0.071,0.033 0.113,0.033 0.035,0 0.086,-0.013 0.127,-0.075 0.032,-0.049 0.06,-0.106 0.086,-0.162 0.054,-0.114 0.105,-0.223 0.177,-0.223 0.039,0 0.091,0.027 0.15,0.077 0.025,0.021 0.053,0.047 0.081,0.074 0.098,0.093 0.208,0.2 0.327,0.2 0.085,0 0.155,-0.052 0.21,-0.152 0.083,-0.153 0.114,-0.18 0.127,-0.182 0.023,10e-4 0.094,0.083 0.156,0.155 l 0.092,0.105 0.04,-0.093 c 0.015,-0.035 0.026,-0.073 0.036,-0.109 0.007,-0.024 0.017,-0.059 0.024,-0.076 0.011,0.007 0.028,0.02 0.058,0.05 l 0.05,0.054 c 0.069,0.075 0.141,0.153 0.229,0.209 l 0.025,0.014 h 0.019 c 0.069,0 0.096,-0.071 0.137,-0.176 0.029,-0.073 0.067,-0.173 0.115,-0.226 0.007,0.018 0.016,0.035 0.027,0.05 0.032,0.039 0.082,0.058 0.148,0.058 0.176,0 0.47,-0.149 0.545,-0.227 0.087,-0.088 0.058,-0.19 0.04,-0.26 -0.014,-0.047 -0.018,-0.069 -0.009,-0.077 0.047,-0.038 0.104,-0.066 0.166,-0.096 0.086,-0.042 0.181,-0.087 0.248,-0.168 0.129,0.153 0.271,0.251 0.42,0.354 0.063,0.044 0.129,0.089 0.195,0.14 0.101,0.076 0.209,0.047 0.282,0.008 0.047,-0.023 0.081,-0.039 0.119,-0.02 0.031,0.017 0.06,0.037 0.086,0.058 0.059,0.044 0.125,0.093 0.212,0.093 0.038,0 0.078,-0.01 0.119,-0.03 0.036,-0.018 0.071,-0.027 0.104,-0.027 0.118,0 0.181,0.135 0.181,0.231 0,0.02 -10e-4,0.082 -0.04,0.082 -0.009,0 -0.019,-10e-4 -0.029,-0.005 l -0.084,-0.029 -10e-4,0.089 c -10e-4,0.218 0.073,0.39 0.153,0.572 0.036,0.086 0.074,0.176 0.104,0.271 l 0.03,0.092 0.072,-0.063 c 0.052,-0.044 0.123,-10e-4 0.199,0.044 0.032,0.018 0.066,0.038 0.102,0.053 -0.009,0.028 -0.018,0.076 0.028,0.114 0.057,0.049 0.128,0.074 0.197,0.099 0.112,0.04 0.182,0.069 0.204,0.148 l 0.023,0.081 0.129,-0.078 c 0.06,0.063 0.165,0.049 0.274,0.017 0.075,-0.022 0.156,-0.043 0.208,-0.021 0.039,0.017 0.09,0.031 0.144,0.047 0.063,0.019 0.194,0.056 0.208,0.083 l 0.005,0.104 0.09,-0.05 c 0.076,-0.042 0.123,-0.105 0.136,-0.176 0.052,0.036 0.101,0.069 0.151,0.069 0.037,0 0.069,-0.019 0.089,-0.052 0.054,-0.098 0.023,-0.181 -0.019,-0.248 h 0.003 c 0.029,0 0.069,0.05 0.104,0.095 0.052,0.065 0.108,0.139 0.196,0.152 l 0.149,0.021 -0.043,-0.06 c 10e-4,0 10e-4,0 0.003,0 l 0.073,-0.002 c 0.04,0 0.052,0.004 0.051,0.003 0.013,0.015 0.028,0.074 0.041,0.113 0.034,0.113 0.065,0.22 0.153,0.22 0.043,0 0.074,-0.028 0.1,-0.066 0.021,0.012 0.047,0.017 0.074,0.017 0.123,0 0.255,-0.118 0.304,-0.168 0.06,0.07 0.143,0.12 0.24,0.101 l 0.074,-0.018 -0.005,-0.013 c 0.03,0.018 0.057,0.037 0.062,0.047 0,0 -0.005,0.016 -0.051,0.044 -0.113,0.068 -0.109,0.147 -0.106,0.201 0.001,0.038 0.002,0.06 -0.03,0.092 -0.068,0.071 -0.05,0.285 -0.018,0.379 0.03,0.081 0.076,0.103 0.109,0.105 0.009,0.002 0.016,0.003 0.026,0.062 0.01,0.042 0.022,0.112 0.081,0.143 -0.038,0.149 0.074,0.216 0.154,0.263 0.013,0.007 0.025,0.015 0.036,0.022 -0.005,0.003 -0.01,0.01 -0.014,0.014 -0.031,0.041 -0.019,0.094 -0.003,0.148 0.009,0.033 0.02,0.072 0.017,0.098 l -0.009,0.11 0.101,-0.048 c 0.05,-0.023 0.138,-0.024 0.223,-0.025 0.188,-0.003 0.445,-0.007 0.465,-0.282 0.01,-0.129 -0.075,-0.22 -0.15,-0.302 -0.019,-0.02 -0.037,-0.04 -0.054,-0.061 0.004,-0.007 0.006,-0.015 0.006,-0.023 0.011,-0.061 -0.021,-0.16 -0.107,-0.189 -0.021,-0.008 -0.044,-0.014 -0.068,-0.02 -0.047,-0.012 -0.094,-0.023 -0.117,-0.048 l 0.061,-0.013 c 0.089,-0.021 0.158,-0.052 0.217,0.037 l 0.07,0.109 0.043,-0.121 c 0.033,-0.093 0.012,-0.153 -0.013,-0.188 -0.007,-0.009 -0.015,-0.017 -0.022,-0.024 l 0.112,0.018 -0.056,-0.11 c -0.009,-0.016 -0.015,-0.029 -0.022,-0.044 0.013,-0.004 0.024,-0.005 0.039,-0.01 l 0.078,-0.023 -0.041,-0.07 C 49.186,51.784 49.182,51.768 49.18,51.752 l 0.015,0.007 c 0.072,-0.104 0.252,-0.148 0.391,-0.181 0.024,-0.006 0.054,-0.015 0.084,-0.024 0.025,-0.009 0.055,-0.019 0.08,-0.024 l -0.07,0.146 0.153,-0.059 c 0.066,-0.027 0.126,-0.081 0.164,-0.152 0.035,0.02 0.073,0.03 0.112,0.03 0.128,0 0.266,-0.114 0.29,-0.238 0.008,-0.042 0.003,-0.081 -0.015,-0.114 0.022,-0.013 0.043,-0.025 0.063,-0.039 v 0.109 c -0.056,0.039 -0.063,0.104 -0.069,0.155 l 0.063,0.021 -0.063,-0.008 -0.013,0.114 0.083,-0.039 v 0.167 h 0.596 l 0.029,-0.005 0.002,-0.003 c 10e-4,-0.001 0.012,-0.022 0.017,-0.034 0.017,-0.039 0.033,-0.086 0.041,-0.136 l 0.004,-0.025 c 0.025,-0.147 0.051,-0.3 0.013,-0.443 -0.034,-0.127 -0.176,-0.337 -0.276,-0.337 -0.009,0 -0.019,0.003 -0.027,0.007 -0.09,0.044 -0.211,0.098 -0.288,0.133 l 0.002,-0.101 c 0.041,-0.012 0.088,-0.027 0.119,-0.042 l 0.012,-0.006 c 0.044,-0.021 0.089,-0.042 0.116,-0.082 0.033,-0.048 0.041,-0.107 0.045,-0.164 0.006,-0.042 0.009,-0.087 0.025,-0.126 0.01,-0.025 0.026,-0.05 0.042,-0.074 0.007,-0.01 0.013,-0.02 0.018,-0.029 0.006,-0.008 0.011,-0.016 0.018,-0.023 0.013,-0.015 0.025,-0.032 0.029,-0.053 0.003,-0.02 -0.007,-0.037 -0.016,-0.056 -0.01,-0.02 -0.02,-0.037 -0.01,-0.051 0.014,-0.021 0.038,-0.03 0.081,-0.03 0.013,0 0.026,0.001 0.039,0.001 0.015,10e-4 0.029,0.002 0.043,0.002 0.024,0 0.056,-0.002 0.081,-0.019 0.016,-0.01 0.026,-0.024 0.036,-0.04 l 0.729,-0.017 c 0.049,0.022 0.095,0.016 0.135,-0.016 l 0.006,-0.004 c 0.012,0.063 0.034,0.108 0.131,0.133 l 0.188,0.047 -0.16,-0.193 c 0.008,-0.004 0.016,-0.008 0.021,-0.014 L 52.312,49.8 c 0.007,0.005 0.013,0.013 0.019,0.018 0.021,0.023 0.044,0.046 0.055,0.059 0.021,0.042 0.053,0.048 0.071,0.048 v 0 l 0.031,-10e-4 0.019,-0.02 c 0.018,-0.019 0.052,-0.055 0.045,-0.56 0.007,0.002 0.014,0.003 0.02,0.007 0.014,0.005 0.027,0.012 0.041,0.018 0.055,0.022 0.11,0.046 0.121,0.094 0.005,0.022 -0.014,0.055 -0.036,0.06 -0.004,0 -0.011,-0.008 -0.018,-0.016 -0.008,-0.01 -0.016,-0.019 -0.025,-0.019 -0.004,0 -0.008,10e-4 -0.011,0.004 -0.032,0.022 -0.035,0.071 -0.028,0.11 0.01,0.044 0.036,0.093 0.075,0.103 0.003,0.001 0.007,0.001 0.009,0.001 0.027,0 0.039,-0.032 0.051,-0.063 0.011,-0.028 0.021,-0.058 0.042,-0.061 0.005,0 0.011,0.01 0.016,0.017 0.008,0.011 0.016,0.021 0.026,0.021 0.004,0 0.006,0 0.01,-0.002 0.028,-0.017 0.013,-0.051 0,-0.083 -0.013,-0.027 -0.024,-0.055 -0.011,-0.068 0.036,-0.039 0.109,-0.038 0.214,0.002 0.018,0.007 0.029,0.022 0.042,0.038 0.014,0.018 0.027,0.034 0.048,0.043 0.057,0.026 0.164,0.029 0.222,0.029 0.027,0 0.045,-10e-4 0.045,-10e-4 h 0.003 l 0.004,-0.002 c 0,-0.002 0.095,-0.119 0.158,-0.148 0.015,-0.006 0.03,-0.01 0.047,-0.011 0.02,-0.001 0.038,-0.005 0.055,-0.014 0.017,-0.009 0.026,-0.023 0.034,-0.035 0.009,-0.014 0.017,-0.026 0.03,-0.029 0.011,-0.003 0.023,0.003 0.037,0.01 0.013,0.006 0.026,0.013 0.041,0.012 0.036,-0.005 0.063,-0.022 0.093,-0.041 0.01,-0.006 0.021,-0.013 0.029,-0.018 0.012,-0.007 0.021,-0.015 0.03,-0.023 0.016,-0.014 0.03,-0.027 0.049,-0.028 0.021,0 0.036,0.014 0.055,0.027 0.011,0.01 0.023,0.019 0.038,0.025 0.025,0.011 0.049,0.02 0.07,0.027 l 0.013,0.21 c -0.003,0.027 -0.026,0.281 0.13,0.388 0.042,0.028 0.098,0.061 0.156,0.061 0.048,0 0.088,-0.021 0.111,-0.064 0.055,-0.094 -0.009,-0.18 -0.076,-0.249 0.025,0 0.048,-0.003 0.068,-0.009 0.005,0.012 0.009,0.021 0.015,0.029 0.035,0.059 0.108,0.09 0.208,0.09 0.105,0 0.233,-0.039 0.271,-0.123 0.001,-0.005 0.003,-0.008 0.004,-0.013 0.115,0.016 0.272,-0.019 0.367,-0.048 0.164,-0.05 0.169,-0.186 0.17,-0.284 0.002,-0.018 0.002,-0.033 0.004,-0.05 0.046,-0.002 0.074,-0.036 0.093,-0.059 0.004,-0.004 0.01,-0.011 0.01,-0.015 0.005,0.004 0.016,0.014 0.033,0.035 l 0.111,-0.054 c -0.017,-0.083 -0.061,-0.135 -0.112,-0.168 0.073,-0.046 0.114,-0.13 0.128,-0.257 0.003,-0.033 0.008,-0.053 0.012,-0.065 0.017,0.012 0.043,0.034 0.077,0.068 0.033,0.033 0.068,0.04 0.09,0.04 0.1,0 0.157,-0.122 0.2,-0.235 v 0.002 l 0.158,0.139 0.042,-0.045 c 0.082,-0.088 0.07,-0.156 0.057,-0.19 -0.013,-0.03 -0.038,-0.053 -0.067,-0.064 0.032,-0.018 0.067,-0.033 0.081,-0.036 0,0 0.008,0.008 0.009,0.039 l 0.128,-0.002 c 0,-0.037 0.01,-0.076 0.021,-0.117 0,0 0,-10e-4 0,-0.002 l 0.081,-0.051 c 0.101,-0.063 0.121,-0.153 0.137,-0.221 0.011,-0.048 0.019,-0.079 0.041,-0.098 0.016,-0.013 0.031,-0.021 0.053,-0.031 0.045,-0.022 0.101,-0.051 0.128,-0.126 l 0.033,-0.083 -0.09,-0.004 c -0.023,0 -0.043,-0.006 -0.05,-0.015 -0.005,-0.007 -0.007,-0.02 -0.005,-0.035 l 0.057,0.017 -0.021,-0.028 c 0.008,0 0.014,0.002 0.021,0.002 0.011,0 0.022,-0.001 0.036,-0.003 l 0.042,-0.004 0.011,-0.042 c 0.012,-0.042 0.006,-0.079 -0.006,-0.114 0.087,0.022 0.19,-0.017 0.249,-0.101 0.042,0.046 0.085,0.091 0.128,0.134 l 0.055,0.052 0.043,-0.06 c 0.04,-0.057 0.132,-0.2 0.108,-0.323 -0.008,-0.04 -0.025,-0.073 -0.054,-0.1 0.111,-0.006 0.254,-0.137 0.288,-0.24 l 0.024,-0.079 -0.084,-0.004 c -0.034,-0.003 -0.039,-0.003 -0.05,-0.082 -0.005,-0.041 -0.012,-0.098 -0.043,-0.141 0.025,0.016 0.068,0.078 0.086,0.155 l 0.125,-0.015 c 0,-0.019 0.002,-0.033 0.004,-0.042 10e-4,0 0.002,10e-4 0.003,0.002 0.052,0.017 0.159,0.055 0.198,-0.111 0.034,-0.146 -0.099,-0.211 -0.189,-0.246 0.027,-0.032 0.05,-0.069 0.064,-0.11 0.09,0.054 0.152,0.129 0.19,0.188 l 0.073,0.113 0.042,-0.128 c 10e-4,-0.002 10e-4,-0.002 10e-4,-0.002 l 0.053,0.221 0.069,-0.219 c 0.007,-0.018 0.009,-0.032 0.01,-0.048 0.018,0.011 0.035,0.02 0.056,0.02 0.018,0 0.052,-0.006 0.08,-0.044 0.014,-0.02 0.024,-0.047 0.031,-0.077 l 0.076,-0.021 -0.065,-0.053 c 0.004,-0.049 -0.002,-0.099 -0.011,-0.129 l -0.017,-0.048 -0.05,0.004 c -0.05,0.005 -0.098,0.018 -0.145,0.04 l -0.09,0.043 0.104,0.086 -0.026,0.008 c -0.021,-0.022 -0.042,-0.042 -0.061,-0.059 -0.063,-0.054 -0.084,-0.077 -0.068,-0.129 0.015,-0.046 0.019,-0.096 0.021,-0.146 0.007,-0.089 0.014,-0.15 0.052,-0.164 l 0.071,-0.03 -0.042,-0.064 c -0.042,-0.062 -0.099,-0.132 -0.185,-0.132 -0.011,0 -0.021,10e-4 -0.032,0.003 0.031,-0.068 0.068,-0.134 0.121,-0.185 0.021,-0.021 0.049,-0.038 0.076,-0.053 0.045,-0.025 0.097,-0.054 0.105,-0.113 0.008,-0.061 -0.035,-0.112 -0.072,-0.152 l -0.081,-0.083 -0.002,0.011 c 0,-0.01 -10e-4,-0.019 -0.004,-0.028 0.191,0.044 0.282,-0.024 0.313,-0.084 0.055,-0.109 -0.004,-0.266 -0.067,-0.375 0.058,-0.034 0.104,-0.082 0.131,-0.138 0.016,-0.034 0.023,-0.07 0.022,-0.105 0,0 0,0 10e-4,0 0.065,0 0.092,-0.031 0.103,-0.055 0.014,-0.031 0.008,-0.062 -0.009,-0.093 0.036,0.011 0.087,0.007 0.114,-0.024 0.026,-0.031 0.034,-0.076 0.022,-0.147 -0.014,-0.104 -0.012,-0.131 0.06,-0.164 l 0.115,-0.055 -0.112,-0.06 c -0.103,-0.055 -0.063,-0.193 -0.002,-0.369 0.015,-0.043 0.029,-0.085 0.038,-0.119 0.017,-0.065 -10e-4,-0.113 -0.031,-0.15 0.124,-0.063 0.203,-0.206 0.211,-0.315 0.002,-0.042 -0.005,-0.079 -0.021,-0.107 0.011,-0.011 0.021,-0.023 0.03,-0.038 0.029,0.027 0.052,0.064 0.077,0.105 0.002,0.006 0.007,0.012 0.011,0.017 -0.038,0.009 -0.086,0.043 -0.106,0.155 l -0.002,0.017 0.007,0.016 c 0.006,0.019 0.014,0.038 0.021,0.058 l 0.021,0.055 0.057,-0.017 c 0.088,-0.025 0.124,-0.082 0.132,-0.135 0.012,0.008 0.021,0.015 0.034,0.021 l 0.131,0.061 -0.042,-0.137 c -0.023,-0.074 -0.012,-0.081 0.053,-0.119 0.028,-0.017 0.059,-0.035 0.089,-0.062 0.122,-0.108 -0.005,-0.271 -0.081,-0.369 -0.02,-0.027 -0.038,-0.05 -0.047,-0.066 -0.013,-0.024 -0.025,-0.046 -0.04,-0.063 0.018,-0.007 0.034,-0.014 0.049,-0.022 0.053,-0.033 0.084,-0.081 0.087,-0.135 l 0.009,0.011 -0.027,-0.198 c -0.021,-0.149 -0.182,-0.274 -0.33,-0.307 0.007,-0.013 0.013,-0.025 0.019,-0.037 0.016,0.018 0.033,0.026 0.056,0.026 l 0.034,-10e-4 0.003,-0.005 c 0.042,0.023 0.095,0.03 0.149,0.016 l 0.028,-0.007 c 0.01,0.008 0.02,0.015 0.031,0.023 0.064,0.041 0.123,0.027 0.15,-0.021 0.052,-0.097 -0.054,-0.35 -0.054,-0.35 -0.018,-0.027 -0.015,-0.059 -0.009,-0.104 0.008,-0.066 0.019,-0.166 -0.101,-0.231 -0.031,-0.017 -0.063,-0.025 -0.087,-0.024 10e-4,-10e-4 0.002,-0.003 0.003,-0.004 0.003,-0.004 0.007,-0.009 0.01,-0.013 l 0.123,0.038 c 0.038,0.013 0.075,0.024 0.112,0.036 l 0.065,0.018 0.015,-0.066 c 0.009,-0.034 0.017,-0.085 -0.013,-0.121 -0.037,-0.047 -0.098,-0.048 -0.197,0.021 l -0.104,0.074 c 0.058,-0.074 0.108,-0.134 0.194,-0.174 l 0.167,-0.078 -0.18,-0.042 C 59.788,40.217 59.742,40.208 59.694,40.199 59.522,40.167 59.309,40.125 59.21,40.024 59.183,39.996 59.157,39.968 59.131,39.939 59.043,39.84 58.952,39.737 58.8,39.693 58.77,39.684 58.737,39.68 58.706,39.68 c -0.116,0 -0.212,0.058 -0.305,0.115 -0.095,0.058 -0.184,0.113 -0.29,0.098 -0.017,-0.025 -0.033,-0.057 -0.052,-0.093 -0.018,-0.032 -0.034,-0.065 -0.054,-0.096 0.037,0.016 0.087,0.027 0.141,0.028 0.122,-0.008 0.144,-0.155 0.154,-0.225 l 0.003,-0.021 c 0.011,-0.061 0.054,-0.09 0.129,-0.137 0.025,-0.015 0.05,-0.03 0.074,-0.048 0.041,-0.031 0.079,-0.066 0.117,-0.101 0.09,-0.082 0.168,-0.153 0.287,-0.164 l 0.033,0.002 c 0.018,0 0.04,0.002 0.061,0.002 0.154,0 0.189,-0.066 0.192,-0.121 0.012,-0.225 -0.336,-0.548 -0.491,-0.63 -0.062,-0.032 -0.122,-0.07 -0.183,-0.112 0.063,0.026 0.127,0.045 0.188,0.045 0.084,0 0.154,-0.031 0.212,-0.092 l 0.048,-0.049 -0.053,-0.045 c -0.002,-0.001 -0.063,-0.052 -0.156,-0.117 l 0.02,-0.039 c 0.14,-0.305 -0.28,-0.515 -0.462,-0.606 -0.035,-0.018 -0.071,-0.03 -0.106,-0.041 C 58.149,37.212 58.098,37.195 58.065,37.142 58.04,37.1 58.031,37.063 58.024,37.023 58.009,36.947 57.993,36.86 57.852,36.798 57.798,36.774 57.734,36.754 57.664,36.733 57.472,36.675 57.253,36.609 57.241,36.441 57.226,36.219 57.084,35.968 56.86,35.767 56.67,35.596 56.516,35.37 56.366,35.15 56.322,35.082 56.274,35.015 56.228,34.95 56.19,34.894 56.154,34.822 56.116,34.746 56.034,34.58 55.941,34.392 55.772,34.314 55.679,34.272 55.585,34.236 55.493,34.201 55.302,34.128 55.122,34.058 54.96,33.938 l -0.032,-0.022 c -0.105,-0.081 -0.267,-0.201 -0.419,-0.201 -0.034,0 -0.066,0.006 -0.097,0.018 -0.006,-0.019 -0.013,-0.036 -0.019,-0.054 -0.052,-0.146 -0.088,-0.243 -0.002,-0.386 0.076,-0.129 0.109,-0.392 0.116,-0.554 0.198,0.007 0.246,-0.157 0.285,-0.29 0.04,-0.134 0.072,-0.217 0.17,-0.231 L 54.949,32.09 c -0.09,0 -0.199,-0.106 -0.245,-0.204 0.016,0.005 0.031,0.011 0.046,0.016 0.035,0.014 0.062,0.023 0.087,0.023 v 0 c 0.022,0.066 0.055,0.153 0.169,0.18 l 0.027,0.004 c 0.07,0 0.26,-0.075 0.276,-0.175 0.017,-0.082 -0.019,-0.146 -0.048,-0.196 -0.025,-0.044 -0.04,-0.072 -0.034,-0.104 0.003,-0.012 0.012,-0.049 0.035,-0.049 0.017,0 0.04,0.015 0.055,0.05 l 0.046,0.112 0.066,-0.102 c 0.052,-0.08 0.057,-0.18 0.012,-0.262 -0.003,-0.007 -0.007,-0.013 -0.01,-0.019 0.009,0 0.018,-0.001 0.026,-0.003 0.114,-0.021 0.255,-0.131 0.381,-0.229 l 0.043,10e-4 c 0.078,0 0.323,-0.197 0.325,-0.2 0.066,-0.061 0.095,-0.062 0.099,-0.062 0,0 0.013,0.011 0.019,0.058 l 0.025,0.17 0.092,-0.146 c 0.015,-0.021 0.027,-0.044 0.04,-0.065 0.041,0.082 0.096,0.174 0.216,0.174 0.034,0 0.071,-0.007 0.112,-0.024 0.082,-0.031 0.134,-0.089 0.142,-0.156 0.008,-0.063 -0.024,-0.126 -0.087,-0.171 -0.067,-0.048 -0.062,-0.058 -0.031,-0.11 0.028,-0.054 0.076,-0.139 -0.007,-0.244 0.015,-0.009 0.031,-0.017 0.046,-0.024 l 0.091,-0.048 -0.081,-0.061 c -0.13,-0.096 -0.282,-0.107 -0.429,-0.119 -0.133,-0.01 -0.26,-0.021 -0.362,-0.093 l -0.077,-0.055 -0.022,0.092 c -0.004,0.021 -0.009,0.039 -0.015,0.059 -0.074,-0.033 -0.176,-0.023 -0.268,-0.009 -0.099,0.017 -0.178,0.022 -0.225,-0.024 -0.007,-0.006 -0.015,-0.017 -0.024,-0.029 -0.046,-0.059 -0.108,-0.139 -0.188,-0.139 l -0.032,0.005 c -0.045,0.014 -0.08,0.023 -0.106,0.023 -0.022,0 -0.051,-0.006 -0.094,-0.057 -0.105,-0.13 -0.397,-0.311 -0.577,-0.256 -0.065,0.021 -0.129,0.054 -0.191,0.086 -0.088,0.049 -0.174,0.094 -0.257,0.097 -0.018,-0.003 -0.037,-0.004 -0.061,-0.004 l -0.013,0.126 c 0.021,0.005 0.041,0.007 0.061,0.007 0.002,10e-4 0.004,10e-4 0.006,10e-4 -0.013,0.062 -0.204,0.241 -0.298,0.297 l -0.076,0.045 0.065,0.058 c 0.043,0.037 0.063,0.07 0.058,0.09 -0.01,0.032 -0.085,0.076 -0.209,0.097 -0.245,0.039 -0.467,-0.012 -0.643,-0.146 -0.152,-0.117 -0.152,-0.236 -0.153,-0.389 -0.001,-0.109 -0.001,-0.234 -0.068,-0.36 -0.111,-0.212 -0.441,-0.458 -0.696,-0.458 h -0.101 l 0.043,0.091 c 0.019,0.038 0.024,0.076 0.02,0.114 -0.016,-0.014 -0.031,-0.032 -0.048,-0.052 -0.045,-0.054 -0.102,-0.12 -0.19,-0.12 -0.025,0 -0.051,0.005 -0.075,0.016 -0.071,0.027 -0.256,0.007 -0.317,-0.037 -0.071,-0.05 -0.153,-0.096 -0.23,-0.141 -0.208,-0.119 -0.423,-0.243 -0.506,-0.465 -0.1,-0.268 -0.123,-0.488 -0.066,-0.591 0.021,-0.037 0.054,-0.06 0.101,-0.067 0.074,-0.016 0.156,0.033 0.236,0.08 0.083,0.049 0.167,0.097 0.257,0.097 0.045,0 0.088,-0.013 0.128,-0.036 0.09,-0.056 0.188,-0.076 0.283,-0.098 0.182,-0.04 0.368,-0.081 0.454,-0.356 0.029,-0.093 -0.004,-0.169 -0.035,-0.234 -0.032,-0.074 -0.06,-0.133 -0.017,-0.22 0.048,-0.095 0.121,-0.142 0.212,-0.202 l 0.045,-0.029 c 0.026,-0.018 0.079,-0.044 0.14,-0.073 0.278,-0.137 0.505,-0.263 0.492,-0.42 -0.016,-0.182 0.103,-0.485 0.279,-0.521 l 0.212,-0.04 -0.2,-0.081 c -0.054,-0.022 -0.061,-0.039 -0.061,-0.039 0,-0.03 0.127,-0.112 0.258,-0.112 0.023,0 0.047,0.003 0.063,0.009 l 0.029,0.01 c 0.135,0.051 0.325,0.101 0.408,0.019 0.085,0.11 0.223,0.175 0.35,0.233 0.223,0.104 0.359,0.177 0.342,0.378 -0.021,0.238 -0.073,0.431 -0.132,0.49 -0.053,0.052 -0.101,0.088 -0.14,0.118 -0.132,0.099 -0.179,0.164 -0.072,0.351 -0.075,0.032 -0.141,0.086 -0.189,0.155 l -0.06,0.083 0.102,0.018 c 0.029,0.004 0.056,0.014 0.084,0.022 l 0.056,0.058 c 0.036,0.038 0.077,0.073 0.12,0.106 l 0.079,0.061 0.021,-0.097 c 0.003,-0.01 0,-0.015 0.002,-0.022 0.079,0.031 0.161,0.056 0.254,0.057 -0.026,0.032 -0.043,0.073 -0.038,0.121 0.004,0.04 0.021,0.074 0.037,0.105 0.027,0.055 0.027,0.063 0.013,0.078 -0.011,0.008 -0.059,0.02 -0.094,0.028 -0.104,0.024 -0.234,0.057 -0.285,0.147 -0.017,0.029 -0.031,0.077 -0.013,0.141 0.055,0.18 0.182,0.206 0.252,0.206 0.16,0 0.321,-0.126 0.379,-0.243 0.016,-0.029 0.024,-0.059 0.026,-0.088 0.044,0.008 0.086,0.024 0.125,0.053 l 0.149,0.104 -0.052,-0.175 c -0.01,-0.036 -0.003,-0.044 0.039,-0.079 0.041,-0.033 0.099,-0.082 0.107,-0.178 0.013,-0.149 0.072,-0.191 0.189,-0.278 l 0.055,-0.041 c 0.031,-0.023 0.063,-0.049 0.095,-0.075 0.116,-0.095 0.224,-0.184 0.359,-0.205 0.063,-0.011 0.16,-0.027 0.204,-0.101 0.01,-0.018 0.018,-0.038 0.02,-0.058 0.081,0.001 0.201,-0.003 0.266,-0.078 0.005,-0.005 0.011,-0.013 0.015,-0.021 0.082,0.048 0.183,0.074 0.29,0.074 0.129,0 0.238,-0.039 0.31,-0.111 0.057,-0.058 0.086,-0.133 0.085,-0.219 -0.002,-0.242 0.164,-0.482 0.381,-0.548 0.04,-0.012 0.066,-0.053 0.102,-0.108 0.021,-0.03 0.054,-0.082 0.075,-0.1 0.084,-0.016 0.157,-0.052 0.22,-0.11 l 0.011,-0.013 c 0.012,-0.02 0.029,-0.03 0.051,-0.043 0.038,-0.024 0.101,-0.064 0.089,-0.163 0.023,-0.015 0.084,-0.03 0.12,-0.037 0.054,-0.014 0.097,-0.024 0.125,-0.045 0.09,-0.067 0.122,-0.192 0.149,-0.302 0.009,-0.033 0.016,-0.064 0.026,-0.091 0.075,-0.223 0.069,-0.363 0.061,-0.559 L 58.56,24.628 c 0.05,-0.017 0.084,-0.048 0.109,-0.073 0.027,-0.026 0.043,-0.04 0.065,-0.043 0.096,-0.01 0.183,0.078 0.271,0.163 0.054,0.053 0.105,0.103 0.16,0.136 0.136,0.079 0.292,0.11 0.428,0.131 l 0.036,0.007 c 0.117,0.018 0.334,0.053 0.507,0.053 0.115,0 0.271,-0.013 0.295,-0.125 0.051,-0.222 -0.169,-0.403 -0.364,-0.564 -0.049,-0.041 -0.097,-0.08 -0.136,-0.117 0.096,-0.013 0.194,-0.014 0.299,-0.015 0.145,-0.002 0.294,-0.003 0.441,-0.041 0.238,-0.06 0.217,-0.227 0.203,-0.325 -0.011,-0.076 -0.013,-0.112 0.017,-0.138 0.022,-0.018 0.078,-0.018 0.14,-0.015 0.022,0.002 0.045,0.003 0.066,0.003 0.035,0 0.13,0 0.183,-0.08 0.086,-0.13 -0.022,-0.384 -0.109,-0.588 -0.01,-0.024 -0.02,-0.048 -0.03,-0.07 0.179,0.007 0.298,0.071 0.391,0.213 0.107,0.161 0.269,0.245 0.421,0.328 0.09,0.047 0.174,0.091 0.247,0.149 l 0.013,0.01 0.079,-0.101 -0.013,-0.01 c -0.062,-0.051 -0.095,-0.101 -0.127,-0.149 -0.048,-0.072 -0.096,-0.146 -0.22,-0.2 0.05,-0.045 0.111,-0.056 0.19,-0.069 0.053,-0.009 0.105,-0.019 0.162,-0.039 0.114,-0.043 0.191,-0.07 0.154,-0.184 -0.009,-0.022 -0.018,-0.052 -0.013,-0.103 0.021,-0.3 -0.133,-0.512 -0.281,-0.716 -0.069,-0.097 -0.142,-0.196 -0.196,-0.305 -0.245,-0.487 -0.494,-0.854 -0.784,-1.155 -0.008,-0.008 -0.03,-0.026 -0.061,-0.049 -0.113,-0.084 -0.179,-0.143 -0.196,-0.175 0.033,-0.024 0.104,-0.042 0.162,-0.057 0.062,-0.016 0.127,-0.033 0.176,-0.06 0.101,-0.06 0.13,-0.181 0.153,-0.287 0.009,-0.04 0.017,-0.079 0.028,-0.109 0.063,0.008 0.195,0.058 0.271,0.086 0.054,0.02 0.096,0.036 0.114,0.04 0.021,0.004 0.059,0.015 0.106,0.027 0.209,0.055 0.598,0.157 0.797,0.157 0.078,0 0.124,-0.014 0.153,-0.048 0.019,-0.021 0.025,-0.05 0.021,-0.079 -0.013,-0.084 -0.051,-0.156 -0.087,-0.225 -0.012,-0.024 -0.024,-0.048 -0.036,-0.072 -0.046,-0.114 -0.029,-0.127 0.017,-0.164 z m -10.844,29.77 c 10e-4,0 0.003,0 0.003,10e-4 v 0.001 C 51.94,49.352 51.939,49.351 51.938,49.351 Z m -2.995,2.631 c -0.016,0 -0.033,0.004 -0.051,0.006 10e-4,0 0.002,0 0.003,-10e-4 0.014,-0.014 0.021,-0.027 0.028,-0.039 0.006,0.013 0.012,0.026 0.02,0.034 z m 3.13,-2.444 c 0.005,-0.008 0.013,-0.013 0.016,-0.021 0.007,0.008 0.013,0.018 0.018,0.025 10e-4,0.004 0.004,0.008 0.007,0.01 -0.013,-0.005 -0.028,-0.01 -0.041,-0.014 z m 6.305,-4.649 c -0.003,0.012 -0.014,0.049 -0.034,0.049 -0.01,0 -0.024,-0.008 -0.036,-0.02 0.036,-0.011 0.061,-0.029 0.076,-0.054 z M 58.33,44.651 c -0.046,-0.046 -0.111,-0.078 -0.18,-0.079 -0.002,-0.024 -0.009,-0.049 -0.016,-0.072 0.029,-0.007 0.059,-0.021 0.084,-0.041 0.034,0.059 0.08,0.111 0.139,0.153 l 0.023,0.018 c -0.003,10e-4 -0.007,0.003 -0.011,0.005 z m -0.582,-6.92 C 57.672,37.71 57.6,37.689 57.527,37.653 57.525,37.65 57.524,37.634 57.524,37.626 c -10e-4,-0.019 -0.003,-0.043 -0.012,-0.069 0.003,0.003 0.005,0.005 0.009,0.008 0.084,0.078 0.183,0.152 0.352,0.135 l -0.035,0.034 0.086,0.039 c 0.023,0.011 0.056,0.029 0.088,0.054 -0.029,-0.016 -0.058,-0.029 -0.087,-0.04 -0.057,-0.023 -0.116,-0.04 -0.177,-0.056 z"
       id="path156"
       style="fill:#677821" /></g></svg>
