<?xml version="1.0" encoding="UTF-8" standalone="no"?>
<svg
   id="Vrstva_1"
   style="enable-background:new 0 0 512 512;"
   version="1.1"
   viewBox="0 0 512 512"
   xml:space="preserve"
   sodipodi:docname="germany.svg"
   inkscape:version="1.2.1 (9c6d41e410, 2022-07-14, custom)"
   xmlns:inkscape="http://www.inkscape.org/namespaces/inkscape"
   xmlns:sodipodi="http://sodipodi.sourceforge.net/DTD/sodipodi-0.dtd"
   xmlns="http://www.w3.org/2000/svg"
   xmlns:svg="http://www.w3.org/2000/svg"><defs
     id="defs220" /><sodipodi:namedview
     id="namedview218"
     pagecolor="#ffffff"
     bordercolor="#000000"
     borderopacity="0.25"
     inkscape:showpageshadow="2"
     inkscape:pageopacity="0.0"
     inkscape:pagecheckerboard="0"
     inkscape:deskcolor="#d1d1d1"
     showgrid="false"
     inkscape:zoom="2.0058594"
     inkscape:cx="255.75073"
     inkscape:cy="256.99708"
     inkscape:window-width="2560"
     inkscape:window-height="1440"
     inkscape:window-x="0"
     inkscape:window-y="0"
     inkscape:window-maximized="1"
     inkscape:current-layer="Vrstva_1" /><style
     type="text/css"
     id="style213">
	.st0{fill:#34404E;}
</style><path
     class="st0"
     d="M185.7,0c6.3,0.1,12.8,0.5,18.8,2.4c3,1,6,2.4,8.6,4.2c3.5-0.3,7.1-0.6,10.6-0.8c4.6,1.7,15.7,3.2,16.6,8  c1.2,6.2,1,12.8-3.5,17.6c3.7-0.6,7.5-1.2,11.3-1.6c-0.5,3-1,5.9-1.6,8.9c4.9-11.7,15.9,0.1,22.7,3c2.5-1.6,5-3.2,7.5-4.8  c3.5-2.3,2.3-2.9,1.7-6.8c-1.2-8.1,11.5,2,13.6,3.8c-4.2,1.4-8.3,1.3-9.4,6c-1.1,5,0.6,9.2-3.9,12.3c-5.4,3.8-12.6,8.2-4.8,14.2  c-4,3.8-3.6,3-7.7-0.7c0.9,2.8,1.9,5.6,2.8,8.4c2.7-4.1,5.5-12.2,10.7-12.3c6.3-0.1,12,3.2,17.7,5.3c-1.2-1.8-2.3-3.5-3.5-5.3  c3.8-3.1,7.6-6.2,11.4-9.2c7.1,0.1,13.9-2.4,19.8-6.4c6.5-4.5,8.2-9.4,11.8-16c6.6,0.9,13.7,6.3,19.8,1c1.3,10.5,11.1,15.8,19,21.1  c3-1,6-2.2,9-3.3c4.5-1.8,4.7,0.8,7.8,4c3.4,3.5,2,3.5-0.3,7.3c7.1-6.8,10.3,2.9,14.8,7c-5.5,1-11,2.1-16.4,3.3  c3.8,3.5,8.6,5.4,13.7,5.8c4.7,0.3,3.4,1.8,4.7,6c0.9,3,1.9,6,2.9,9c3.2,10,6.3,23.4-1,32.4c-7.8,9.7-3.8,13.1,5.4,20.5  c2.6,2.1,5.2,4.1,7.8,6c3.9,2.9,2.1,4.7,1.3,9.2c-1.5,8.2,1.6,11.5,4.7,18.8c2.6,6.1,3.1,9.3,1.1,15.5c-2.4,7.7-1.9,10.1,1.4,17.2  c1.2,2.5,2.1,5.2,2,8.1c-0.2,4.6,1.3,3.5,5.7,4.9c5.9,1.9,6.4,11,6.8,16.8c0.3,5.3-0.2,10.7-1.6,15.9c-0.8,3.1-1.9,6.2-3.2,9.2  c-1.8,3.9-1.9,2.9-5.6,2.5c-6.3-0.6-6.3-6.2-8.4-11.8c-4.4-0.2-8.8-0.4-13.2-0.7c2.7,2.7,5.5,5.3,8.2,8c-9.8,5.7-19.8,12.2-31,14  c-5.9,0.9-3.7,5.7-8.7,7.7c-4.7,1.8-8.5,5.2-12.4,8.1c-7,5.4-13.4,6-21.9,7.2c-5.2,0.7-6.5,3.7-9.6,7.9c-2.4,3.2-2.3,5.8-6.3,3.3  c-2.6-1.6-5.1-3.4-7.7-5c2,6.5,5.8,12.2,10.5,17.1c2.7,2.8,5.6,5.3,8.7,7.7c3.8,3,0,6-2,9.7c-2.1,3.9,4.8,12.2,7.1,16.6  c2.8,5.5,6.4,10.8,12.6,12.7c5.8,1.8,9.3,6.9,13,11.3c4.7,5.5,12.4,11,18.6,14.1c3.8,1.9,7.3,4.3,10.7,6.6c0.3,3.8,0.8,7.6,0.5,11.4  c-0.2,3.8-1.2,7.6-3.3,10.8c-4.4-1.3-8.8-2.5-13.3-3.6c-1.2,4.7,0.7,10.2-2,14.5c-2.9,4.7-12.4,6.1-17.1,8.7c-2.9,1.6-5.6,3.5-7.8,6  c-3.8,4.3-2,5.4,1.2,9.6c2.8,3.6,5.8,7,8.6,10.6c-1.5,2.4-3.1,4.7-4.7,7c12,0.2,6,12.2,5.9,19.5c-6.2-3.3-13.8-7.1-13.2-15.4  c-4.5,1.5-8,3.7-12.7,2.5c-4.4-1.1-8.8-2-13.2-2.9c0.1,2.3,0.3,4.6,0.4,6.9c-8.5-0.4-17,0.2-25.3,1.8c-5.5,4.3-12.7,11.3-19.6,11.7  c-3.4,0.2-6.9,0.5-10.3,0.8c-1.3-2.9-2.2-8-5.4-8.9c-5.9-1.5-10.9-2.1-16.9-2.2c2.2,10.1-6.5,16.7-14.7,20.2c1.1-3,2.2-5.9,3.3-8.9  c-3.6,0.7-4.5,2.3-6.1-1.3c-1.8-3.8-4.9-6.7-8.3-9.2c-4.5-3.3-5.1-2.4-10,0.1c-4.7,2.4-7.9-1.8-12.1-4.4c-3.1-1.9-6.3-3.5-9.8-4.3  c-4.6-1-9.1,0.3-13.6-1.5c-4.3-1.7-7.9-4.8-11.6-7.5c-4-2.9-8.7,5.1-11.6,8.3c4.5,0,9-0.1,13.5-0.1c-2.9,1.9-5.8,3.6-8.8,5.4  c-4.5,2.7-3.4,0.3-7.8-0.9c-5.2-1.3-10.4,1-15.5,1.8c-4.1,0.6-10.2,2.4-13.9-0.2c-6.1-4.2-5.7-10-4.6-16.4  c1.2-6.9,2.2-13.9,3.4-20.9c1.2-6.8,4.6-13.3,6.8-19.8c2.1-6.2,3.3-14.2,7.9-19c5.3-5.6,10.7-11.2,15.1-17.7  c-9.5-5.5-22-3.6-30.8-10.7c-3.3-2.7-2-4.2-6.4-2.6c-3.8,1.4-7.8,1.6-11.8,1.3c-4-5.2-9.6-8.6-15-3c-4.8-8.6-6.7-20.4-17-24.3  c2.4-5,5.2-9.8,7.7-14.7c2.5-4.8-3.8-6.2-7.2-9.8c-7.2-7.7-8.7-16-2.4-24.5c2.7-3.6,5.7-7.2,7.2-11.6c1.3-4.1-3.3-4.2-5.2-7.8  c-3.2-5.8-2.9-13.5-9.4-17c7.3-6.3,1.6-13.1-3.6-18.4c3.6-1.6,7.2-3.2,10.8-4.8c-2.1-4.3-0.9-8.5,1.6-12.3  c5.4-8.3,2.4-13.9-1.4-22.4c-1.8-4-3.5-8.2-4.9-12.3c3.2-1.7,6.5-3.3,9.7-5c4.1,2.2,6.6,4.7,11.2,3.4c5.4-1.6,10.9-3.2,16.4-4.6  c-2.1-2.7-4.1-5.4-6.2-8.1c3-2.2,6-4.4,9-6.6c5.1-3.8,5.9-4.5,6.7-10.7c0.5-4.4,2.4-5.8-2.5-7c-4.3-1.1-8.5-2.4-12.6-4.1  c1.4-3.1,3.1-10.7,6.6-10.2c2.3,0.3,4.6,0.6,7,0.9c3.6,0.5,4.2-6.9,5.2-9.9c2.5-7.9,4.7-15.9,6-24c0.6-3.5,1-7.1,1.2-10.6  c-3.3-0.6-6.7-1.2-10-1.9c1.6-6.3,4.5-12.1,7.3-17.9c2.1-4.2,1.3-5.9,6.3-5.4c3.5,0.4,7.1,0.6,10.6,0.7c5.3,0.1,16.6-2.9,19.2,1.6  c1.5,2.6,3,5.2,4.5,7.7c-1.1,3-2.2,5.9-3.2,9c2.2-0.2,5.7,2.8,7.7,0.9c2.3-2.2-1.2-10.9-1.9-13.7c8.7,1.8,12.2,8.2,9.5,16.6  c2.7-7,2.8-10.2,1.4-17.4c-1.2-6,2.4-11.7,4.8-16.9c8.2,8.9,22.9-0.9,29.2,8.6c5.2,7.9,10.4,17.7,21.3,17.3  c-3.3-1.5-6.7-2.9-10.1-4.3c-1.9-3-3.8-5.9-5.8-8.9c-1.9-2.9-3.9-5.9-6-8.7c-3.1-4.3-7.3-2.9-12.3-3.2c-6.4-0.5-5.3-5.7-5.2-10.9  c0-2.1-0.2-4.3-1.5-6c-2.5-3.2,0.1-5.7,2-9.4c-4.7,0.1-9.4,0.3-14.1,0.4c1.4-3,3-6,4.5-9c3.2,0.3,6.4,0.6,9.6,1  c-3.1-4,2.1-4.7,5.1-6c-2,0.4-4,0.8-6,1.3c-0.5-4-1.1-8.1-1.6-12.1c-5.6-0.4-11.2-0.9-16.7-1.4c0.9-2.4,1.9-4.8,2.8-7.2  c3.6,2.6,7.3,5.2,10.9,7.8C189.3,11.2,187.4,5.6,185.7,0"
     id="path215"
     style="fill:#677821" /></svg>
