<?xml version="1.0" encoding="UTF-8" standalone="no"?>
<svg
   version="1.0"
   width="1280.000000pt"
   height="809.000000pt"
   viewBox="0 0 1280.000000 809.000000"
   preserveAspectRatio="xMidYMid meet"
   id="svg6"
   sodipodi:docname="us.svg"
   inkscape:version="1.3.1 (91b66b0783, 2023-11-16, custom)"
   xmlns:inkscape="http://www.inkscape.org/namespaces/inkscape"
   xmlns:sodipodi="http://sodipodi.sourceforge.net/DTD/sodipodi-0.dtd"
   xmlns="http://www.w3.org/2000/svg"
   xmlns:svg="http://www.w3.org/2000/svg">
  <defs
     id="defs6" />
  <sodipodi:namedview
     id="namedview6"
     pagecolor="#ffffff"
     bordercolor="#000000"
     borderopacity="0.25"
     inkscape:showpageshadow="2"
     inkscape:pageopacity="0.0"
     inkscape:pagecheckerboard="0"
     inkscape:deskcolor="#d1d1d1"
     inkscape:document-units="pt"
     inkscape:zoom="0.52734375"
     inkscape:cx="751.88148"
     inkscape:cy="214.28148"
     inkscape:window-width="1698"
     inkscape:window-height="1394"
     inkscape:window-x="4284"
     inkscape:window-y="28"
     inkscape:window-maximized="1"
     inkscape:current-layer="svg6" />
  <path
     style="fill:#677821;stroke-width:3.79259"
     d="m 809.71852,1025.7179 c -4.17185,-1.9017 -17.08495,-6.9115 -28.69578,-11.1329 -17.05502,-6.2007 -22.33735,-10.2478 -27.4963,-21.06618 -3.51213,-7.36503 -6.3857,-16.49721 -6.3857,-20.29367 0,-3.7965 -4.06729,-11.29138 -9.03839,-16.65528 -4.9711,-5.36394 -15.48565,-22.62354 -23.36563,-38.35468 -17.97124,-35.87675 -28.76295,-46.18737 -51.7791,-49.47081 -19.0181,-2.71311 -24.16712,0.10946 -37.57325,20.5967 l -6.08225,9.29492 -21.73702,-14.97084 c -22.75681,-15.67323 -28.67621,-22.98421 -28.67621,-35.41766 0,-7.84357 -47.05974,-66.31355 -56.88889,-70.68232 -3.12889,-1.3907 -17.20889,-3.50598 -31.28889,-4.70065 -24.6828,-2.09423 -25.6,-1.86546 -25.6,6.38525 0,7.55314 -1.44646,8.31302 -12.32592,6.47528 -6.77926,-1.14517 -28.45139,-4.18376 -48.16026,-6.75248 -35.78635,-4.66413 -35.90568,-4.71571 -89.12593,-38.52914 -29.31037,-18.62231 -55.85159,-36.12471 -58.98048,-38.89421 -3.12889,-2.76947 -16.78222,-6.09917 -30.34074,-7.39931 -49.39294,-4.73638 -48.0747,-4.17121 -50.89705,-21.82118 -2.97854,-18.62675 -15.69427,-40.86207 -23.36783,-40.86207 -2.95876,0 -5.37957,-2.51616 -5.37957,-5.5915 0,-3.07534 -5.12,-8.23914 -11.37777,-11.47517 -6.25778,-3.23603 -11.37778,-7.4075 -11.37778,-9.26993 0,-1.86243 -8.53334,-7.24283 -18.962965,-11.95645 -18.687348,-8.44561 -18.962963,-8.81888 -18.962963,-25.68204 0,-11.6929 -3.84553,-24.76468 -12.143263,-41.27755 -10.553063,-21.0011 -11.501317,-25.19359 -7.241171,-32.01517 4.204203,-6.732 3.77325,-9.37635 -3.027109,-18.5743 -9.5575,-12.9272 -10.069647,-20.83498 -1.654386,-25.5444 7.003392,-3.9193 4.425085,-16.52307 -3.051173,-14.91536 -2.514935,0.54087 -6.172256,-4.13665 -8.127382,-10.39443 -1.955126,-6.25778 -5.918274,-16.98236 -8.806997,-23.83239 -6.100987,-14.46725 -6.661612,-25.2328 -1.788225,-34.33881 2.144307,-4.00668 1.904962,-13.28553 -0.628247,-24.35568 -3.744975,-16.36557 -3.23433,-19.45941 6.017484,-36.45804 6.948987,-12.76758 10.138016,-24.34309 10.200206,-37.02462 0.120573,-24.58618 5.368158,-45.94724 14.233033,-57.93763 7.439607,-10.0626 38.754084,-84.88954 38.796152,-92.70464 0.01285,-2.38743 2.458266,-9.00835 5.434266,-14.71315 3.52437,-6.755993 5.36421,-21.962514 5.27698,-43.614816 -0.0737,-18.283345 0.0409,-34.496507 0.25462,-36.029249 0.2137,-1.532742 10.81408,2.511072 23.5564,8.986252 l 23.16786,11.773056 -2.35342,14.717451 c -2.75729,17.243189 1.19759,18.977421 9.7783,4.287822 4.37861,-7.495881 5.53972,-16.03042 4.12778,-30.340741 -2.29017,-23.2114469 -3.75058,-22.711691 36.40693,-12.458569 117.5492,30.012975 285.91908,59.689761 421.49729,74.2929 30.24592,3.257792 101.71843,6.927324 158.82782,8.154514 94.40556,2.02864 104.15658,1.65704 107.37383,-4.091889 4.61563,-8.247686 10.65761,-4.32285 10.65761,6.923129 0,9.75771 9.09714,13.67372 36.35063,15.6477 8.52025,0.61712 21.81966,4.85583 29.55423,9.41935 9.72508,5.73792 17.8151,7.69621 26.22719,6.34862 6.69031,-1.07178 18.99091,-0.81856 27.33461,0.56271 l 15.1704,2.51141 -18.963,12.7997 c -24.52236,16.55223 -39.82221,30.78483 -39.82221,37.04443 0,6.24695 1.07998,6.21452 17.18848,-0.51604 11.48503,-4.79876 13.15223,-4.79876 13.15223,0 0,10.8598 22.3335,6.06459 45.7192,-9.81632 12.4011,-8.42143 22.5475,-16.95476 22.5475,-18.96296 0,-2.0082 2.6568,-3.65128 5.9039,-3.65128 5.3436,0 5.3436,0.80011 0,8.42906 -3.2471,4.63599 -5.9039,9.44193 -5.9039,10.67989 0,1.23796 9.6531,6.25181 21.4513,11.14191 18.7776,7.78287 22.9139,8.29971 33.1852,4.1466 30.8394,-12.46959 36.9542,-13.47587 40.7434,-6.70492 2.0326,3.63223 8.1675,6.4408 14.0689,6.4408 5.7554,0 13.7773,2.50572 17.8263,5.56827 6.952,5.25819 6.6228,5.61361 -5.9121,6.38251 -7.3008,0.44783 -17.6723,0.53563 -23.048,0.19512 -5.3756,-0.34052 -16.4031,2.76068 -24.5056,6.89156 -8.1024,4.13088 -18.4305,7.51068 -22.9512,7.51068 -5.7366,0 -9.7041,3.72322 -13.1343,12.32593 -2.7032,6.77926 -8.0303,16.85605 -11.8379,22.39287 -10.9474,15.91885 -8.0689,20.86355 5.0398,8.65743 9.4855,-8.8324 11.3813,-9.56839 9.1545,-3.554 -7.7288,20.87496 -13.796,62.22901 -11.6752,79.57854 2.7931,22.84846 12.1938,46.23213 19.7523,49.13261 6.9752,2.67666 18.85,-3.5976 23.5973,-12.46799 7.4473,-13.91549 8.7151,-43.59793 2.4893,-58.28431 C 1141.1445,291.80354 1145.5806,256 1158.7564,256 c 3.4712,0 9.217,-7.28154 13.6451,-17.29206 4.207,-9.51063 9.785,-18.11166 12.3955,-19.1134 2.6105,-1.00173 12.4841,1.49546 21.9413,5.54931 16.5589,7.09796 17.2921,8.10203 19.8175,27.13918 2.0274,15.28371 1.2888,21.24204 -3.2556,26.2636 -6.2389,6.89389 -7.9978,19.17189 -2.7465,19.17189 1.7223,0 7.024,-4.14339 11.7815,-9.20753 11.3362,-12.06683 17.432,-9.11889 24.5913,11.8925 5.7639,16.91624 5.6628,17.69058 -5.4378,41.67371 -6.221,13.44046 -11.3109,25.95628 -11.3109,27.81294 0,1.85666 6.7383,5.39459 14.9739,7.86206 16.6825,4.9982 31.494,1.03705 50.1366,-13.40846 5.5649,-4.31202 19.6435,-14.53741 31.2857,-22.72309 25.5587,-17.97031 34.289,-29.77721 29.1367,-39.40439 -6.1197,-11.43469 1.271,-16.63305 27.5087,-19.34875 30.8601,-3.19412 45.8489,-14.3968 42.1,-31.46552 -1.8458,-8.40401 0.5767,-14.58035 11.619,-29.62299 7.6731,-10.45285 16.771,-20.42157 20.2175,-22.15271 3.4465,-1.73113 24.4716,-7.11274 46.7224,-11.95912 34.2031,-7.44966 41.0783,-10.17718 44.4817,-17.64679 2.214,-4.85936 6.4088,-8.83519 9.3216,-8.83519 5.9574,0 10.3098,-15.6659 12.001,-43.19608 1.6938,-27.573084 9.4194,-52.542756 14.8597,-48.02772 2.9238,2.426562 7.8186,1.925424 14.3646,-1.470684 14.5771,-7.562683 23.3958,0.397472 33.2517,30.014514 6.3751,19.15706 11.4951,27.18641 23.2953,36.53235 l 15.1243,11.97869 -10.6567,11.12323 c -5.8612,6.11778 -14.8952,13.15467 -20.0755,15.63753 -5.1803,2.48286 -12.8616,10.01057 -17.0694,16.72823 -4.2079,6.71767 -12.181,14.30657 -17.718,16.86422 -10.5291,4.86363 -13.6226,14.66785 -16.6542,52.78256 -1.2422,15.61681 -0.2382,18.27478 9.6697,25.6 13.7856,10.19212 15.1555,10.17677 15.1555,-0.16981 0,-6.21449 1.0964,-7.24737 4.2962,-4.04752 5.971,5.97097 1.2347,16.18382 -7.5053,16.18382 -3.982,0 -9.3489,2.54121 -11.9266,5.64713 -2.5777,3.10592 -6.3364,4.62757 -8.3526,3.38144 -2.0163,-1.24613 -6.1514,1.28266 -9.189,5.61952 -3.0377,4.33686 -12.2277,9.89398 -20.4223,12.34915 -18.683,5.59756 -43.8883,25.7802 -32.2337,25.81053 4.1718,0.0109 11.8518,-2.41931 17.0667,-5.40036 11.9816,-6.84931 17.3233,-7.164 11.9626,-0.70474 -2.2751,2.74129 -12.7578,9.02218 -23.295,13.95753 -13.0202,6.09836 -17.9193,10.21255 -15.2908,12.84103 6.5289,6.52891 4.3296,33.7834 -3.8025,47.12149 l -7.6417,12.53384 -11.5254,-8.20683 c -18.6598,-13.28693 -17.4967,-7.82738 5.0633,23.76799 6.3835,8.93997 6.359,10.30735 -0.5694,31.76406 -4.912,15.21224 -7.4006,19.37321 -7.7393,12.94044 -0.5548,-10.53427 -8.3944,-22.75555 -14.5971,-22.75555 -4.757,0 -9.9515,-20.29151 -8.9807,-35.08149 0.3765,-5.73629 -1.0167,-10.42963 -3.096,-10.42963 -5.6894,0 -8.8796,17.26931 -6.013,32.54947 1.6164,8.61628 0.8522,15.5697 -2.1026,19.12999 -3.8156,4.59746 -3.1731,5.97751 3.6083,7.75089 9.2786,2.42638 13.6217,14.75781 11.1439,31.64042 -1.4994,10.2158 -0.6456,11.32923 8.6871,11.32923 8.1196,0 11.2158,2.48366 14.3677,11.5255 3.6384,10.43676 3.136,11.92733 -5.3178,15.77916 -12.473,5.68309 -11.8175,10.62127 1.41,10.62127 13.7285,0 16.518,2.95424 11.5517,12.23384 -2.5669,4.79627 -6.5663,6.76864 -11.2444,5.5453 -5.5321,-1.44668 -7.2604,0.0933 -7.2604,6.46926 0,4.60234 -2.048,10.4159 -4.5511,12.91901 -3.5398,3.53974 -2.4863,4.55426 4.7407,4.56529 9.0068,0.0137 8.9325,0.23332 -2.4223,7.15742 -13.1736,8.03317 -28.1081,25.48698 -28.1081,32.84973 0,2.67579 -6.3168,7.99232 -14.0373,11.81446 -9.3525,4.63007 -17.0002,12.6453 -22.9148,24.01606 -4.8825,9.38667 -17.0978,25.6 -27.1451,36.02963 -31.9346,33.1498 -40.7091,62.41811 -28.425,94.81481 3.1638,8.34371 7.3488,20.40192 9.3,26.796 1.9512,6.39412 9.4265,18.49386 16.612,26.88838 7.1853,8.39449 14.2821,20.11477 15.7705,26.04502 1.4884,5.93025 9.308,22.43273 17.377,36.67214 13.7555,24.27452 14.5487,27.36651 12.7148,49.55894 -1.3364,16.17169 -3.9958,25.17081 -8.3956,28.40991 -9.5422,7.0248 -13.81,5.929 -25.8491,-6.63705 -5.9953,-6.25778 -12.7146,-11.45003 -14.9317,-11.53832 -4.2685,-0.16995 -21.0979,-24.45395 -21.0979,-30.44318 0,-1.94128 -2.3637,-3.52961 -5.2527,-3.52961 -7.4636,0 -19.2803,-19.26095 -18.0228,-29.37693 0.8319,-6.69359 -0.3423,-7.98003 -5.4834,-6.00724 -5.7636,2.21169 -6.2787,0.54644 -4.3285,-13.99342 2.2094,-16.4721 -4.7326,-37.85204 -12.2904,-37.85204 -1.9055,0 -11.3522,-6.82667 -20.9926,-15.17037 -9.6403,-8.34371 -19.9249,-15.17037 -22.8545,-15.17037 -2.9295,0 -13.4232,5.13479 -23.3192,11.41066 l -17.9927,11.41062 -5.3734,-8.85582 c -8.936,-14.72724 -50.3232,-22.59892 -70.4953,-13.40788 -7.4166,3.3792 -10.8784,3.24578 -15.5096,-0.59778 -4.5158,-3.74777 -7.0269,-3.88301 -10.3523,-0.55759 -2.4147,2.4147 -9.5957,4.45087 -15.9578,4.52479 -6.362,0.0739 -15.7125,2.43056 -20.7787,5.23704 -5.5931,3.09824 -15.1026,4.31248 -24.2088,3.09107 -11.3711,-1.52519 -14.5937,-0.80027 -13.3276,2.9979 0.9184,2.75524 5.4115,5.28517 9.9847,5.62206 4.5732,0.33693 9.3934,1.69116 10.7117,3.00939 1.3182,1.31826 5.5857,0.69013 9.4833,-1.39579 8.8874,-4.75637 9.1183,-0.67914 0.5009,8.84303 -6.3057,6.96764 -6.1435,7.59926 3.8121,14.85142 5.7188,4.16586 9.4159,9.16309 8.2157,11.10497 -1.2001,1.94189 -7.0191,0.0865 -12.9309,-4.12315 -11.353,-8.08403 -19.0594,-9.84591 -19.0594,-4.35746 0,1.81297 -6.4,4.36171 -14.2222,5.66382 -11.8682,1.97563 -16.9085,0.48841 -30.4517,-8.98526 -15.8145,-11.06246 -27.3854,-14.53822 -27.3854,-8.22617 0,1.7196 -13.22663,3.19583 -29.39256,3.28048 -55.58017,0.29108 -68.81276,2.27354 -70.02081,10.49031 -1.33666,9.09152 -31.11371,32.40637 -41.38845,32.40637 -4.10928,0 -11.42564,4.26667 -16.25858,9.48149 -4.83294,5.21481 -10.2981,9.5351 -12.14483,9.60064 -15.37509,0.54575 -26.15823,53.64349 -15.19817,74.83797 3.38337,6.5427 6.15159,12.8339 6.15159,13.9805 0,3.024 -8.30908,2.1056 -17.06667,-1.8864 z"
     id="path7"
     transform="scale(0.75)" />
  <path
     style="fill:#677821;stroke-width:1.34088"
     d="m 352.14357,1048.5823 c -17.24991,-15.0445 -27.22734,-26.9834 -34.10267,-40.8071 l -6.28538,-12.63757 -14.92607,-7.1834 c -8.60975,-4.14357 -20.41776,-8.54325 -27.90349,-10.39686 -10.30755,-2.55236 -14.23185,-4.24138 -19.07472,-8.20974 -6.89508,-5.65 -13.66522,-8.45914 -20.59478,-8.54541 -4.27394,-0.0532 -4.98191,0.48821 -7.37486,5.6399 -3.04926,6.56462 -10.6891,11.14151 -20.9422,12.54613 -5.62115,0.77006 -6.31873,0.56461 -7.16796,-2.11109 -0.63771,-2.00926 0.19144,-5.14646 2.57381,-9.73838 1.93303,-3.72584 3.20984,-7.079 2.83735,-7.45149 -1.07387,-1.07388 -11.47693,6.28489 -19.168,13.55879 -4.57828,4.32994 -7.04057,7.75256 -7.04057,9.78648 0,2.29967 -3.17994,5.77447 -12.01045,13.12411 -18.81137,15.65673 -24.23313,18.26283 -58.4628,28.10143 -17.236917,4.9544 -40.437703,8.4709 -42.471298,6.4373 -1.39924,-1.3992 4.951407,-6.9305 7.957175,-6.9305 1.056925,0 8.405997,-1.5716 16.33127,-3.4924 10.262413,-2.4874 19.208703,-5.8889 31.084363,-11.819 l 16.67478,-8.3264 5.1478,-9.73926 c 2.83128,-5.35656 4.90925,-9.97776 4.61769,-10.26932 -0.29155,-0.29155 -2.87297,0.11681 -5.73649,0.90746 -5.13398,1.41757 -5.28629,1.35178 -10.95029,-4.72943 -4.74769,-5.09741 -6.57149,-6.167 -10.51568,-6.167 -5.68796,0 -7.04087,-2.36403 -4.65261,-8.1298 2.64472,-6.38493 0.3061,-9.66996 -9.40477,-13.21071 -6.863367,-2.50252 -8.612781,-3.78675 -10.141096,-7.44452 -1.296087,-3.10198 -1.486508,-5.677 -0.638473,-8.63393 0.825574,-2.87861 0.617102,-6.43368 -0.657987,-11.22068 -1.797389,-6.74782 -1.757625,-7.08145 1.074836,-9.01837 1.6177,-1.10623 6.75125,-4.87746 11.40789,-8.38052 4.65664,-3.50306 9.15002,-6.3692 9.98529,-6.3692 0.83527,0 2.91521,1.31197 4.62208,2.9155 l 3.10341,2.9155 3.07654,-2.89025 c 1.69209,-1.58964 5.44931,-3.71173 8.34938,-4.71576 5.32039,-1.84196 6.91252,-4.36376 7.2128,-11.42444 0.12731,-2.99356 -0.17131,-3.10087 -6.28808,-2.2596 -12.5496,1.72602 -29.84534,-8.26348 -27.87811,-16.10155 0.411,-1.63758 -0.13349,-5.90398 -1.20998,-9.48089 -1.07649,-3.57691 -1.49425,-6.96648 -0.92835,-7.53237 1.0489,-1.04891 10.62511,-2.90011 21.95166,-4.24355 l 6.29718,-0.7469 0.40724,6.33367 0.40724,6.33368 h 5.2783 c 4.87917,0 5.36779,-0.34539 6.4619,-4.56768 1.62097,-6.25553 0.43647,-9.78624 -4.14752,-12.36272 -2.86561,-1.61065 -4.1094,-3.53844 -4.75819,-7.37487 -0.48313,-2.8568 -2.4794,-8.65112 -4.43616,-12.87626 -3.49857,-7.55428 -3.51565,-7.7286 -1.02718,-10.47833 2.15982,-2.38658 3.47615,-2.6662 8.98472,-1.90858 7.51695,1.03385 11.81828,-1.07632 15.08986,-7.40288 1.49716,-2.89517 5.07096,-5.42999 13.10153,-9.29262 l 11.04279,-5.31149 12.06796,1.10927 c 11.65001,1.07085 21.97147,3.865 25.69626,6.9563 0.98552,0.81792 1.79186,2.92173 1.79186,4.67515 0,3.03326 0.42763,3.18802 8.80896,3.18802 6.8153,0 11.07552,0.94357 18.82372,4.16916 9.48663,3.94929 11.49193,4.1503 18.73049,1.8775 2.25366,-0.70762 4.06558,0.69008 9.5052,7.33217 l 6.72077,8.20645 0.88664,48.42553 c 0.48766,26.63405 0.88665,59.12347 0.88665,72.19871 0,26.6292 -0.49319,25.40098 10.19984,25.40098 5.56901,0 6.46783,0.54257 13.77176,8.31328 l 7.81391,8.31328 7.49691,-3.92514 7.49691,-3.92513 3.48074,3.27 c 1.91442,1.79848 9.03846,10.9668 15.8312,20.37404 l 12.35044,17.1041 12.40318,5.6493 12.40318,5.6493 -0.0149,10.1502 -0.0149,10.1502 -8.63408,3.6875 c -4.74875,2.0281 -9.54996,3.6874 -10.66936,3.6874 -1.1194,0 -6.52663,-3.9171 -12.01606,-8.7047 z"
     id="path8"
     transform="scale(0.75)" />
  <path
     style="fill:#677821;stroke-width:0.474074"
     d="m 440.60006,935.26214 -2.42216,-0.19595 -0.26933,-3.56114 c -0.35772,-4.72991 0.0955,-5.83739 3.14553,-7.68588 2.88103,-1.74609 7.30923,-3.40435 9.09093,-3.40435 2.26072,0 5.83316,2.71836 7.27957,5.5392 1.30068,2.53665 -0.24229,7.11433 -2.86883,8.51124 -1.61502,0.85894 -8.39966,1.24634 -13.95571,0.79688 z"
     id="path9"
     transform="scale(0.75)" />
  <path
     style="fill:#677821;stroke-width:0.474074"
     d="m 502.61324,961.63569 c -0.62445,-0.25057 -1.49366,-1.34907 -2.03397,-2.57052 -0.99615,-2.25197 -2.77387,-9.64074 -2.79123,-11.6013 -0.0111,-1.2503 3.91876,-5.4043 6.25923,-6.61626 1.21624,-0.6298 1.41407,-0.56109 3.89476,1.35275 3.58084,2.7626 8.41368,7.97146 9.47906,10.21659 2.08977,4.40387 1.07741,8.23563 -2.43347,9.21057 -2.1923,0.60879 -10.86325,0.61451 -12.37438,0.008 z"
     id="path10"
     transform="scale(0.75)" />
  <path
     style="fill:#677821;stroke-width:0.474074"
     d="m 565.30085,986.15181 c -0.76436,-0.91609 -1.97632,-2.53775 -2.69326,-3.60368 -0.78547,-1.16782 -2.14501,-2.34688 -3.42085,-2.96673 -2.32594,-1.13003 -3.09785,-2.5421 -3.09785,-5.66696 0,-1.00405 -0.18331,-1.82555 -0.40736,-1.82555 -0.22404,0 -1.34404,0.7446 -2.48889,1.65466 -1.14484,0.91006 -2.27472,1.65673 -2.51085,1.65926 -0.23613,0.003 -1.12822,-0.52847 -1.98242,-1.18 -2.26794,-1.72985 -3.56217,-2.10404 -8.81295,-2.54803 -5.9843,-0.50601 -7.19663,-1.24922 -7.41074,-4.54307 -0.1078,-1.65834 0.0802,-2.50717 0.71111,-3.21053 0.76899,-0.8573 1.24975,-0.92797 4.65025,-0.68359 4.20444,0.30215 11.67573,1.75711 14.87118,2.89601 1.13915,0.406 2.73915,1.39146 3.55556,2.1899 0.8164,0.79844 2.84085,2.11964 4.49877,2.93599 2.72128,1.33995 3.57488,1.5108 8.77844,1.75702 4.99992,0.23659 5.96736,0.41752 7.29768,1.36479 3.3016,2.35095 3.36139,4.61739 0.20217,7.66248 -2.53148,2.44002 -6.80967,5.06554 -8.95242,5.49409 -1.1851,0.23702 -1.60934,0.0261 -2.78757,-1.38606 z"
     id="path11"
     transform="scale(0.75)" />
  <path
     style="fill:#677821;stroke-width:0.474074"
     d="m 543.79809,988.8555 c -1.00783,-1.28125 -3.35364,-8.04067 -3.35364,-9.66348 0,-0.49894 0.6585,-1.65717 1.46334,-2.57384 1.39052,-1.5837 1.5262,-1.63361 2.72593,-1.00266 1.3499,0.70991 4.64694,4.01171 5.93325,5.94182 0.89495,1.34286 1.01362,3.43364 0.2734,4.81676 -0.54819,1.0243 -4.52066,3.72961 -5.47655,3.72961 -0.32114,0 -1.02572,-0.5617 -1.56573,-1.24821 z"
     id="path12"
     transform="scale(0.75)" />
  <path
     style="fill:#677821;stroke-width:0.474074"
     d="m 588.99837,1049.8518 c -1.52723,-0.6178 -3.34543,-3.0571 -4.42049,-5.9304 -2.35979,-6.3072 -5.49294,-21.0764 -5.1384,-24.2219 0.12073,-1.0711 1.52957,-4.5848 3.13075,-7.8083 1.82682,-3.6778 2.91125,-6.4548 2.91125,-7.4554 0,-2.3985 0.74017,-3.4284 2.46396,-3.4284 1.62556,0 10.40354,2.8641 13.41752,4.3779 5.41591,2.7202 11.72575,8.5105 16.92676,15.5332 2.10227,2.8386 3.41846,4.17 4.45305,4.5044 4.14071,1.3385 5.59057,5.9487 2.81325,8.9454 -0.737,0.7953 -1.82477,1.243 -3.61616,1.4884 -6.88036,0.9426 -18.6159,6.2936 -23.01286,10.493 -3.8643,3.6907 -6.85487,4.7456 -9.92863,3.5021 z"
     id="path13"
     transform="scale(0.75)" />
</svg>
